<svg width="19" height="16" viewBox="0 0 19 16" fill="none" xmlns="http://www.w3.org/2000/svg">
<path d="M3.30724 11.296C3.23581 10.9095 3.14295 10.5301 3.09295 10.1436C2.89295 8.63343 3.21438 7.23774 4.10724 5.99236C4.80724 5.01181 5.76438 4.33186 6.86438 3.85947C8.18581 3.29404 9.60724 2.98628 11.043 2.95765C12.3215 2.92186 13.4358 3.39425 14.4072 4.19587C15.4072 5.02612 16.1787 6.04962 16.7715 7.20196C17.0572 7.76023 17.3215 8.33282 17.593 8.90541C17.6215 8.96982 17.643 9.0414 17.6572 9.11297C17.2787 9.34201 16.9144 9.5782 16.5287 9.78576C15.1001 10.5731 13.5572 11.1099 11.9501 11.389C11.0715 11.5393 10.1858 11.6252 9.3001 11.6825C8.45724 11.7397 7.61438 11.7683 6.77152 11.7469C5.62152 11.7182 4.47867 11.5393 3.30724 11.296ZM5.12152 7.45962C5.1001 8.71932 6.12152 9.73566 7.36438 9.74997C8.56438 9.76429 9.68581 8.84099 9.68581 7.48825C9.68581 6.08541 8.60724 5.1979 7.4001 5.1979C6.1501 5.1979 5.12867 6.20709 5.12152 7.45962ZM13.9001 8.1181C14.5787 8.1682 15.3358 7.60277 15.343 6.67231C15.3501 5.89932 14.7287 5.26947 13.9572 5.26232H13.9287C13.143 5.248 12.5001 5.87785 12.4858 6.658V6.67947C12.4858 7.49541 13.093 8.1181 13.9001 8.1181Z" fill="white"/>
<path d="M17.7 9.43505C17.8 10.6375 17.5 11.6968 16.9 12.6702C16.0857 13.9871 14.8715 14.8174 13.4429 15.3399C11.9857 15.8695 10.4357 16.0771 8.89288 15.9626C7.97145 15.8981 7.04288 15.7621 6.21431 15.3256C4.78574 14.5669 3.90002 13.3573 3.43574 11.8184C3.41431 11.7254 3.40717 11.6252 3.40002 11.5322C8.43574 12.6988 13.2143 12.1835 17.7 9.43505Z" fill="white"/>
<path d="M17.4643 5.06191C17.8358 4.92592 17.8358 4.91876 17.8 4.56805C17.7786 4.36765 17.7715 4.16724 17.8715 3.97399C17.9143 3.89526 17.9072 3.79506 17.9143 3.70201C17.9286 3.41572 18.1643 3.19384 18.45 3.19384C18.7358 3.19384 18.9786 3.42288 18.9929 3.70917C18.9929 3.99546 18.7643 4.23166 18.4786 4.24597C18.3858 4.25313 18.2929 4.24597 18.1643 4.24597C18.15 4.38912 18.1215 4.51795 18.1357 4.63963C18.1786 4.99034 18.1215 5.28379 17.7215 5.43409L18.5358 6.87988L17.3143 7.63856C16.8 6.44328 16.0143 5.45556 15.0715 4.55374L15.8 3.66623C16.4786 3.98831 16.9858 4.50364 17.4643 5.06191ZM2.76432 9.49231L1.57861 9.0915C1.52147 8.37576 1.67147 7.71013 1.93575 7.05881L1.52146 6.40033C1.37146 6.40033 1.22146 6.42896 1.09289 6.39318C0.807179 6.32876 0.528608 6.24287 0.264322 6.13551C0.0571792 6.04962 -0.0356779 5.76333 0.021465 5.55577C0.100036 5.30526 0.335751 5.1478 0.592894 5.16927C0.835751 5.19074 1.03575 5.37683 1.07147 5.62018C1.08575 5.7347 1.07147 5.85637 1.07147 5.99952H1.70004C1.96432 6.10688 1.95004 6.42896 2.15004 6.63653C2.54289 6.1212 2.92861 5.60587 3.51432 5.24084L4.05718 5.66313C3.64289 6.23571 3.20004 6.77252 3.05004 7.43815C2.90004 8.11094 2.85718 8.78373 2.76432 9.49231Z" fill="white"/>
<path d="M7.62152 3.45151L7.37866 2.85029C8.05009 2.31349 8.81438 2.09161 9.62152 1.98425C9.6358 1.76953 9.52866 1.67648 9.36438 1.59059C8.80723 1.3043 8.71438 0.63151 9.15723 0.223541C9.42152 -0.0198092 9.7358 -0.0555959 10.0501 0.066079C10.3358 0.166282 10.5358 0.431104 10.5572 0.73887C10.6072 1.06811 10.4501 1.39019 10.1644 1.55481C10.0858 1.59775 10.0001 1.63354 9.92152 1.66933L10.0072 1.9413C10.7287 1.92699 11.4358 1.93415 12.1358 2.21328L12.0358 2.80734C10.5572 2.8145 9.05723 2.73577 7.62152 3.45151Z" fill="white"/>
</svg>
