<svg width="17" height="14" viewBox="0 0 17 14" fill="none" xmlns="http://www.w3.org/2000/svg">
<path d="M10.787 3.85527H11.3058L12.7836 2.3429L12.8563 1.7012C10.1065 -0.782468 5.90868 -0.51485 3.48164 2.29915C2.80683 3.08086 2.31729 4.01059 2.05078 5.0169C2.21539 4.94762 2.39781 4.93668 2.56954 4.98481L5.5246 4.48604C5.5246 4.48604 5.67496 4.23154 5.75263 4.24759C7.06734 2.77022 9.2799 2.59812 10.7977 3.85527H10.787Z" fill="white"/>
<path d="M14.8886 5.01695C14.5487 3.7372 13.8518 2.58651 12.882 1.70636L10.8084 3.82835C11.6842 4.56047 12.183 5.66375 12.1616 6.821V7.198C13.1813 7.198 14.0072 8.04388 14.0072 9.08664C14.0072 10.1301 13.1806 10.9753 12.1616 10.9753H8.46972L8.10132 11.3574V13.623L8.46972 14H12.1616C14.278 14.0168 16.1556 12.6131 16.7841 10.545C17.4112 8.4763 16.6416 6.23035 14.8886 5.01695Z" fill="white"/>
<path d="M4.77292 13.9788H8.46479V10.9548H4.77292C4.50998 10.9548 4.24988 10.8972 4.01046 10.7849L3.4917 10.949L2.00384 12.4614L1.87415 12.9922C2.70858 13.6368 3.72685 13.9832 4.77292 13.9788Z" fill="white"/>
<path d="M4.77288 4.16812C2.72208 4.18051 0.905713 5.52444 0.251565 7.51298C-0.402582 9.50152 0.249428 11.6964 1.87482 12.9755L4.01612 10.7842C3.08692 10.3547 2.67433 9.23609 3.09404 8.28521C3.51375 7.33432 4.60685 6.91212 5.53605 7.34162C5.94507 7.53121 6.27286 7.86664 6.45813 8.28521L8.59943 6.09395C7.68804 4.87545 6.27215 4.16301 4.77288 4.16812Z" fill="white"/>
</svg>
