<svg enable-background="new 0 0 100 100" viewBox="0 0 100 100" xmlns="http://www.w3.org/2000/svg"><g id="Layer_1"/><g id="Layer_2"><g><g fill="#f60"><path d="m95.861 43.517c-7.059-44.746-67.18-53.838-87.55-13.491-14.094 28.783 5.422 62.6 37.287 65.569-.246.138 11.835.216 5.657-.32-2.384-.191-5.999-.995-8.814-1.959-36.39-12.825-36.26-63.1.176-75.704 23.974-8.48 50.92 8.586 53.287 33.766.096 1.138.173 1.413.319 1.15.27-.481.038-6.243-.362-9.011z"/><path d="m88.716 53.078c-8.249 8.928-23.788 3.74-25.163-8.21-.951-6.583 3.482-13.149 9.804-15.499-46.918-21.531-70.066 53.155-17.955 60.528 21.169 1.764 38.564-17.143 34.611-37.897-.052-.085-.636.4-1.297 1.078z"/></g></g></g></svg>