<svg width="18" height="17" viewBox="0 0 18 17" fill="none" xmlns="http://www.w3.org/2000/svg">
<path d="M7.8835 16.9812C7.59043 16.9542 6.81952 16.8224 6.53357 16.7503C4.0613 16.1272 1.96752 14.4561 0.859583 12.2216C0.252173 10.9967 -0.000990535 9.90113 2.91164e-06 8.50177C0.000996358 7.10078 0.258051 5.98336 0.855609 4.78192C1.30316 3.8822 1.81801 3.17729 2.54886 2.46356C3.91592 1.12859 5.64758 0.302088 7.60914 0.0485954C8.25041 -0.0342677 9.60787 -0.00730038 10.2068 0.10016C11.4523 0.323825 12.5706 0.763065 13.5727 1.42221C15.6547 2.79182 17.0052 4.88628 17.3573 7.29192C17.4326 7.807 17.4762 8.87891 17.4255 8.96839C17.3977 9.01726 17.3834 8.9661 17.3653 8.75428C17.2754 7.70477 16.8154 6.43567 16.1808 5.48626C14.2521 2.60052 10.6534 1.3762 7.32154 2.47222C4.74984 3.31817 2.81709 5.46436 2.28659 8.06311C2.02423 9.34814 2.10296 10.6078 2.52336 11.8512C3.26455 14.0442 5.0386 15.7961 7.28843 16.5569C7.81909 16.7364 8.50043 16.8859 8.9498 16.9214C9.48792 16.9641 9.35223 17.0046 8.68844 16.9996C8.32616 16.9969 7.96405 16.9885 7.8835 16.9812Z" fill="white"/>
<path d="M9.7311 15.9209C6.94994 15.7209 4.64573 13.674 4.16482 10.9763C4.07731 10.4853 4.06042 9.56747 4.13062 9.11565C4.54754 6.43306 6.63808 4.39777 9.36526 4.01949C9.91795 3.94284 10.903 3.96964 11.4324 4.07587C11.8928 4.16822 12.4033 4.33231 12.8043 4.51667L13.1154 4.65968L12.8226 4.79606C11.7664 5.28842 11.1145 6.44009 11.2675 7.54338C11.4208 8.64822 12.1948 9.51526 13.3059 9.82701C13.706 9.9393 14.3176 9.93921 14.7178 9.82701C15.2352 9.6818 15.641 9.44441 16.0103 9.07079C16.135 8.94461 16.245 8.85439 16.2549 8.87017C16.2647 8.88602 16.2932 9.05992 16.3182 9.2567C16.3799 9.74203 16.3437 10.6654 16.2449 11.1264C15.93 12.5947 15.1367 13.8272 13.9202 14.7378C12.7689 15.5996 11.2458 16.0297 9.7311 15.9209Z" fill="white"/>
</svg>
