<svg width="18" height="13" viewBox="0 0 18 13" fill="none" xmlns="http://www.w3.org/2000/svg">
<path d="M16.0475 1.89659C14.8044 0.675797 13.1321 0 11.3636 0C9.59518 0 7.92291 0.675797 6.67981 1.89659L6.54662 2.02739C6.22845 1.97652 5.93987 1.94746 5.6217 1.94746C4.14182 1.94746 2.70633 2.52152 1.64822 3.58245C-0.549406 5.74064 -0.549406 9.22862 1.64822 11.3868C2.70633 12.4259 4.11222 13 5.6217 13H11.5042C13.2505 12.9709 14.871 12.2951 16.0845 11.1034C18.6446 8.55282 18.6446 4.41811 16.0475 1.89659ZM5.6365 11.8083C4.44519 11.8083 3.35748 11.3141 2.53615 10.4785C0.812085 8.78535 0.812085 6.06037 2.53615 4.38904C3.35748 3.58245 4.46739 3.11738 5.6365 3.11738H5.66609C5.90287 3.11738 6.08786 3.14645 6.30244 3.16825C6.53922 3.21912 6.75381 3.24818 6.99059 3.32085C7.41235 3.45165 7.81192 3.66238 8.15229 3.89491C8.30768 4.02571 8.50006 4.12745 8.62586 4.28731L8.75904 4.41811L10.5571 6.1839C10.7939 6.41643 10.7939 6.77977 10.5571 7.04136C10.4239 7.17216 10.2907 7.22303 10.1353 7.22303C9.97995 7.22303 9.81716 7.17216 9.71357 7.04136L8.23369 5.58804L7.91551 5.27557C7.86372 5.22471 7.81192 5.19564 7.78232 5.14477C7.36056 4.78144 6.8574 4.54891 6.30244 4.43991C6.11746 4.38904 5.90287 4.38904 5.71789 4.38904H5.6365C4.81516 4.41811 4.07522 4.73058 3.49067 5.29737C2.24757 6.51817 2.24757 8.47289 3.49067 9.69368C4.09742 10.2895 4.86696 10.602 5.74009 10.602H6.29504L6.8278 11.0961C7.09418 11.3577 7.36056 11.6193 7.67873 11.801H5.6365V11.8083ZM15.1965 10.2459C14.6416 10.7909 13.9756 11.2051 13.2357 11.4667C12.9989 11.5467 12.7843 11.5975 12.5475 11.6775C12.1998 11.7574 11.8298 11.8083 11.4598 11.8083H11.3562C10.0835 11.8083 8.89223 11.3941 7.93771 10.6093C7.80452 10.5075 7.67133 10.3767 7.53814 10.2677L4.99275 7.76803C4.75597 7.53549 4.75597 7.17216 4.99275 6.91056C5.12594 6.77977 5.25913 6.7289 5.41451 6.7289C5.5699 6.7289 5.73269 6.77977 5.83628 6.91056L8.35208 9.38122C8.58886 9.61375 8.85524 9.79542 9.12161 9.97708C9.75796 10.3695 10.4979 10.5729 11.2896 10.5729C11.6374 10.5729 12.0074 10.5221 12.3256 10.4421C12.5401 10.3913 12.7473 10.3113 12.9323 10.2314C13.4059 10.0207 13.8572 9.73728 14.2568 9.34488C15.8699 7.76076 15.8699 5.15931 14.2568 3.56792C13.4355 2.76132 12.3774 2.36892 11.3192 2.36892C10.4979 2.36892 9.70617 2.60145 8.98843 3.07378C8.64065 2.81219 8.27068 2.57965 7.84892 2.39799C8.85524 1.59139 10.0983 1.17719 11.3192 1.17719C12.6955 1.17719 14.0718 1.70039 15.1299 2.71045C17.2906 4.81051 17.2906 8.16769 15.1965 10.2459Z" fill="white"/>
</svg>
