<svg width="18" height="7" viewBox="0 0 18 7" fill="none" xmlns="http://www.w3.org/2000/svg">
<path fill-rule="evenodd" clip-rule="evenodd" d="M14.3274 4.855C15.1118 4.855 15.7761 4.24411 15.7761 3.48068C15.7761 2.71718 15.1118 2.11405 14.3274 2.11405C13.5188 2.11405 12.871 2.71718 12.871 3.48066C12.871 4.2441 13.5188 4.85498 14.3274 4.85498M12.4825 3.48066C12.4825 2.51876 13.308 1.74033 14.3274 1.74033C15.3472 1.74033 16.1716 2.51874 16.1716 3.48066C16.1716 4.44982 15.3472 5.22925 14.3274 5.22925C13.308 5.22925 12.4825 4.44982 12.4825 3.48066ZM9.89482 3.48066C10.1286 3.465 10.5094 3.21364 10.6547 3.06104C10.5979 3.24403 10.5979 3.824 10.6547 4.00751C10.493 3.78635 10.1286 3.51883 9.89482 3.48066ZM8.56789 1.64135C8.85906 1.64135 9.09342 1.90839 9.09342 2.21406C9.09342 2.51874 8.85906 2.78681 8.56789 2.78681H7.56382V1.64134L8.56789 1.64135ZM8.56789 4.21317C8.85906 4.21317 9.09342 4.48075 9.09342 4.78593C9.09342 5.10705 8.85906 5.37359 8.56789 5.37359H7.56382V4.21317H8.56789ZM14.3274 6.99998C16.3497 6.99998 18 5.41224 18 3.48066C18 1.51867 16.3497 0 14.3274 0C12.281 0 11.2452 1.40422 10.995 1.97693C10.995 1.12944 10.0964 0.114433 9.05299 0.114433H5.6797V6.96961H8.81809C10.0964 6.96961 10.995 5.93861 10.995 5.03799C11.278 5.59529 12.281 7 14.3274 7M5.276 6.96948H3.30172V4.31256H2.02288V6.96948H0V0.114314H2.02288V2.6712H3.30172V0.114331H5.276V6.96948Z" fill="white"/>
</svg>
