<svg width="18" height="18" viewBox="0 0 18 18" fill="none" xmlns="http://www.w3.org/2000/svg">
<path d="M10.2966 8.49541V16.7587C10.2966 17.0213 10.3127 17.0367 10.5811 17.0367C11.4185 17.0367 12.256 17.0419 13.0935 17.0316C13.3941 17.0264 13.7001 17.0161 13.9954 16.9544C16.2071 16.527 17.6888 14.7817 17.6942 12.6193C17.6996 9.8855 17.6942 7.15166 17.6942 4.41781C17.6942 4.21187 17.6834 4.00078 17.6566 3.79484C17.3775 1.65308 15.4556 0.0158573 13.2062 0.00556036C12.3526 0.000411879 11.5044 0.00556036 10.6509 0.00556036C10.2966 0.00556036 10.2966 0.00556034 10.2966 0.335063V8.49541ZM8.55183 8.5366V0.314469C8.55183 0.00556034 8.54646 0.00556036 8.24047 0.00556036C7.01111 0.00556036 5.77638 -0.00988509 4.54702 0.0107088C2.81303 0.0313028 1.50315 0.777833 0.611996 2.19881C0.161052 2.9196 0 3.71247 0 4.54138C0.00536838 7.14651 0 9.75164 0 12.3568C0 12.5576 0.00536826 12.7635 0.0214734 12.9643C0.16642 15.209 2.09367 16.9853 4.43965 17.0264C5.69049 17.047 6.94669 17.0316 8.19752 17.0316C8.54646 17.0316 8.54646 17.0316 8.54646 16.6918C8.55183 13.9734 8.55183 11.255 8.55183 8.5366Z" fill="white"/>
<path d="M10.2966 8.49541V0.335063C10.2966 0.00556037 10.2966 0.00556036 10.6509 0.00556036C11.5044 0.00556036 12.3527 0.000411879 13.2062 0.00556036C15.4556 0.0158573 17.3775 1.65308 17.6566 3.79484C17.6835 4.00078 17.6942 4.21187 17.6942 4.41781C17.6942 7.15166 17.6996 9.8855 17.6942 12.6193C17.6942 14.7817 16.2071 16.527 13.9954 16.9544C13.7001 17.011 13.3941 17.0264 13.0935 17.0316C12.256 17.0419 11.4186 17.0367 10.5811 17.0367C10.3127 17.0367 10.2966 17.0213 10.2966 16.7587V8.49541ZM15.5844 9.3758C15.5844 8.41818 14.8006 7.6665 13.8128 7.6665C12.8304 7.6665 12.0413 8.41818 12.0359 9.36035C12.0305 10.318 12.8143 11.0799 13.8021 11.0851C14.7899 11.0851 15.579 10.3283 15.5844 9.3758ZM8.55184 8.5366V16.6969C8.55184 17.0367 8.55184 17.0367 8.20289 17.0367C6.95206 17.0367 5.69586 17.0522 4.44502 17.0316C2.09367 16.9904 0.171791 15.2142 0.0268448 12.9694C0.016108 12.7687 0.00537109 12.5627 0.00537109 12.3619V4.54652C0.00537109 3.71247 0.166423 2.9196 0.617367 2.20396C1.50852 0.78813 2.8184 0.0415998 4.54702 0.0107088C5.77638 -0.00988509 7.01111 0.00556036 8.24047 0.00556036C8.54647 0.00556036 8.55184 0.0107088 8.55184 0.314469V8.5366ZM7.097 1.4008H4.23566C4.13366 1.4008 4.02629 1.42654 3.92429 1.44714C2.43188 1.76119 1.44947 2.94534 1.44947 4.46415C1.4441 7.16195 1.44947 9.86491 1.44947 12.5627C1.44947 12.7687 1.46557 12.9849 1.50315 13.1857C1.79841 14.6581 3.02777 15.6312 4.58997 15.6415C5.35765 15.6467 6.12533 15.6415 6.89301 15.6415C6.95743 15.6415 7.02722 15.6312 7.097 15.6312V1.4008Z" fill="white"/>
<path d="M15.5844 9.37588C15.5844 10.3284 14.7899 11.0852 13.8021 11.08C12.8143 11.0749 12.0305 10.3129 12.0359 9.35529C12.0413 8.41312 12.8304 7.66144 13.8128 7.66144C14.8006 7.66144 15.5844 8.41826 15.5844 9.37588ZM7.097 1.40088V15.6313C7.02721 15.6364 6.95742 15.6416 6.893 15.6416C6.12532 15.6416 5.35764 15.6467 4.58996 15.6416C3.02777 15.6313 1.80377 14.6634 1.50314 13.1858C1.4602 12.9798 1.44946 12.7687 1.44946 12.5628C1.44409 9.86499 1.44409 7.16203 1.44946 4.46423C1.44946 2.94542 2.43187 1.76127 3.92428 1.44722C4.02628 1.42662 4.13365 1.40088 4.23565 1.40088H7.097ZM2.76471 5.11808C2.76471 6.00877 3.52166 6.73471 4.43965 6.72441C5.35227 6.71411 6.09311 6.00362 6.09848 5.11808C6.10385 4.23255 5.35227 3.50661 4.42891 3.50146C3.50555 3.50146 2.75935 4.2274 2.76471 5.11808Z" fill="#E50110"/>
<path d="M2.76477 5.11809C2.76477 4.2274 3.51098 3.50146 4.42897 3.50146C5.35233 3.50146 6.1039 4.23255 6.09853 5.11809C6.09317 6.00363 5.35233 6.71412 4.43971 6.72442C3.52171 6.73471 2.76477 6.00878 2.76477 5.11809Z" fill="white"/>
</svg>
