<svg width="15" height="18" viewBox="0 0 15 18" fill="none" xmlns="http://www.w3.org/2000/svg">
<g clip-path="url(#clip0_10_849)">
<path d="M4.5 7.28741C4.47429 7.28741 4.45714 7.28741 4.44 7.26957C3.85714 6.46679 3.71143 5.08422 3.67714 4.55796C3.66857 4.45538 3.55714 4.40186 3.47143 4.45092C1.67143 5.49899 0 7.98761 0 10.387C0 14.5213 2.75571 17.9867 7.5 17.9867C11.9443 17.9867 15 14.4188 15 10.3915C15 5.12436 11.3871 1.63673 8.16857 0.0579319C8.08286 0.013333 7.98857 0.0891511 7.99714 0.182809C8.41714 3.02376 7.84286 6.10554 4.49571 7.29633L4.5 7.28741Z" fill="white"/>
</g>
<defs>
<clipPath id="clip0_10_849">
<rect width="15" height="18" fill="white"/>
</clipPath>
</defs>
</svg>
