<svg width="23" height="16" viewBox="0 0 23 16" fill="none" xmlns="http://www.w3.org/2000/svg">
<path d="M20.4513 10.6036C20.4179 10.5421 20.3438 10.52 20.284 10.5544C20.1549 10.6281 19.7221 10.7756 19.5858 10.8273C19.0742 10.9133 18.4478 10.8937 18.1394 10.1266C18.0461 9.8955 17.9553 9.68653 17.7951 9.46772C17.6158 9.21941 17.0276 8.92439 16.4777 9.45788C16.3462 9.58573 16.2315 9.73078 16.1382 9.89058C16.1 9.95205 16.0665 10.0135 16.033 10.0725C16.0307 10.0651 16.0283 10.0578 16.0259 10.0479C15.9781 9.87583 15.8226 9.23908 15.1771 9.13582C15.0887 9.12844 14.7276 9.08665 14.2303 9.64719C14.063 9.83895 13.9124 10.043 13.7761 10.2594C13.7522 10.1463 13.7235 10.043 13.6948 9.9963C13.2716 9.32758 12.6309 9.86108 12.3559 10.0602C11.7391 10.5077 11.4522 11.1075 11.0744 9.74553C11.0266 9.55131 10.986 9.35709 10.9573 9.1604C11.3302 8.50398 12.0953 6.51013 11.6578 5.1727C11.6291 5.08911 11.4761 4.65641 11.1103 4.68345C11.0577 4.68837 10.6393 4.64412 10.4121 5.84387C10.1994 7.00429 10.2448 8.50152 10.2974 8.99814C10.3022 9.04977 10.3141 9.15057 10.3332 9.28333C9.97223 9.92008 9.49645 10.6429 9.20716 10.6773C8.83179 10.7216 8.93699 10.3651 8.70747 9.57343C8.66683 9.47018 8.54011 8.98093 7.97109 9.00552C7.69136 9.01781 7.39728 9.09157 6.99323 9.54639C6.33814 10.2839 4.84385 11.3903 3.77514 10.6945C3.65799 10.6011 3.08179 10.1168 3.29458 8.66378C3.35913 8.26305 3.47389 7.8746 3.63647 7.50337C3.79427 7.14197 3.99032 6.80269 4.22462 6.488C5.32202 5.1014 6.27358 4.93914 6.46007 4.94897C6.94063 4.94897 7.06735 5.58819 7.06495 5.58327C7.08408 5.6939 7.18689 5.77012 7.29448 5.75045C7.3925 5.73324 7.46184 5.64473 7.45944 5.54393C7.45705 5.40626 7.42836 5.26858 7.37816 5.14074C7.30404 4.88997 7.08647 4.65395 6.95976 4.5679C6.35726 4.1352 4.99448 4.48431 3.67712 6.04793C3.40217 6.40195 3.17026 6.7904 2.98855 7.20097C2.79728 7.62875 2.6634 8.08112 2.58689 8.54332C2.23065 11.1223 3.75841 11.5304 4.01662 11.582C5.3531 11.7418 6.33814 10.9945 6.80435 10.5347C6.97171 11.3952 7.80851 11.405 8.1767 11.0166C8.26994 10.9133 8.34645 10.7978 8.40383 10.6699C8.6214 11.4837 9.31714 11.2059 9.40082 11.1715C9.78814 11.0215 10.1946 10.4659 10.4839 9.99876C10.6656 10.638 11.0194 11.3239 11.696 11.2501C12.1049 11.2403 13.1258 10.1217 13.2214 10.2692C13.3146 10.3897 13.3409 10.6109 13.3338 10.9428C13.3266 11.2747 13.5824 11.2895 13.6972 11.2575C13.8765 11.2059 13.9889 10.8445 14.1754 10.5298C14.2901 10.3331 14.424 10.1487 14.577 9.97909C14.6511 9.89796 14.9835 9.54393 15.2178 9.6644C15.4521 9.78487 15.476 10.0307 15.4927 10.1684C15.5094 10.3036 15.5118 10.4511 15.5166 10.6085C15.5094 11.1567 15.7605 11.2329 15.8298 11.2526C16.4084 11.4124 16.4443 10.2938 16.8698 9.87829C16.9105 9.8365 17.2811 9.44313 17.4915 10.0848C17.7975 11.2452 18.7395 11.6804 20.0066 11.0338C20.2409 10.9133 20.2888 10.8666 20.4155 10.7683C20.4657 10.7289 20.48 10.6601 20.4513 10.6036ZM8.04999 10.3675C7.79656 10.9035 7.23949 10.8715 7.24905 10.2864C7.25622 9.68898 7.98065 9.31283 8.17431 9.72832C8.18865 9.76274 8.203 9.79962 8.21256 9.83895C8.1767 9.95205 8.16236 10.1291 8.04999 10.3675ZM11.1653 5.33988C11.2705 5.54147 11.5 6.81498 10.876 8.20404C10.8736 8.15979 10.8736 8.11554 10.8712 8.07128C10.864 5.81191 11.1437 5.30054 11.1653 5.33988Z" fill="white"/>
</svg>
