<svg width="16" height="18" viewBox="0 0 16 18" fill="none" xmlns="http://www.w3.org/2000/svg">
<path d="M7.88927 4.35498C8.91297 4.35498 9.81102 3.96678 10.5834 3.19038C11.3558 2.41397 11.742 1.51115 11.742 0.481907C11.742 0.368867 11.7328 0.208232 11.7144 0C11.5795 0.0178484 11.4784 0.0327221 11.4109 0.0446211C10.4669 0.175509 9.63631 0.624695 8.9191 1.39216C8.2019 2.15964 7.84331 2.98067 7.84331 3.85524C7.84331 3.95636 7.85862 4.12297 7.88927 4.35498ZM11.5581 18C12.2875 18 13.0936 17.5151 13.9763 16.5454C14.8591 15.5756 15.5333 14.4363 15.9992 13.1274C14.2644 12.2588 13.397 11.0124 13.397 9.38819C13.397 8.03173 14.0989 6.8716 15.5027 5.90779C14.528 4.72384 13.2407 4.13187 11.6408 4.13187C10.9665 4.13187 10.3505 4.23004 9.79264 4.42637L9.44323 4.55131L8.97428 4.72979C8.66777 4.84283 8.38886 4.89937 8.13754 4.89937C7.94137 4.89937 7.6839 4.83391 7.36516 4.70302L7.00655 4.56023L6.66635 4.42637C6.16981 4.22409 5.63651 4.12295 5.06643 4.12295C3.54006 4.12295 2.31407 4.6227 1.38844 5.62221C0.462807 6.62171 0 7.93952 0 9.5756C0 11.878 0.74172 14.005 2.22518 15.9564C3.25502 17.3188 4.19597 18 5.04803 18C5.40971 18 5.7683 17.9316 6.12384 17.7947L6.57439 17.6163L6.93301 17.4913C7.43566 17.3188 7.89846 17.2325 8.32143 17.2325C8.76892 17.2325 9.28384 17.3426 9.86619 17.5627L10.1512 17.6698C10.7458 17.8899 11.2148 18 11.5581 18Z" fill="white"/>
</svg>
