<svg width="18" height="6" viewBox="0 0 18 6" fill="none" xmlns="http://www.w3.org/2000/svg">
<g clip-path="url(#clip0_10_856)">
<path d="M1.0356 4.28505C1.11167 4.47885 1.21698 4.64456 1.35156 4.78217C1.48613 4.9198 1.64557 5.02512 1.82986 5.09815C2.01417 5.17118 2.21456 5.20768 2.43105 5.20768C2.64169 5.20768 2.83915 5.16976 3.02346 5.09391C3.20777 5.01807 3.36866 4.91135 3.50615 4.77374C3.64364 4.63611 3.75042 4.47182 3.82649 4.28084C3.90256 4.08985 3.94058 3.87641 3.94058 3.64048V0.000518799H4.86209V5.89858H3.94936V5.3509C3.74458 5.55873 3.50321 5.71882 3.2253 5.83119C2.94737 5.94352 2.64753 5.99969 2.32573 5.99969C1.99807 5.99969 1.69237 5.94491 1.40859 5.83538C1.12483 5.72585 0.87908 5.56999 0.671389 5.36776C0.463698 5.16553 0.299856 4.92262 0.179921 4.63893C0.0599673 4.35526 0 4.03931 0 3.69102V0.000518799H0.921512V3.64048C0.921512 3.87641 0.959535 4.09125 1.0356 4.28505ZM6.45053 0.000518799V2.1491C6.6553 1.9525 6.89228 1.79663 7.16141 1.68147C7.43055 1.56631 7.7231 1.50873 8.03904 1.50873C8.3667 1.50873 8.67384 1.5677 8.96055 1.68566C9.24724 1.80362 9.49589 1.96372 9.70653 2.16595C9.91717 2.36818 10.0839 2.6069 10.2068 2.88214C10.3297 3.15739 10.3911 3.44949 10.3911 3.75844C10.3911 4.06736 10.3297 4.35806 10.2068 4.63048C10.0839 4.90293 9.91717 5.14026 9.70653 5.34246C9.49589 5.54469 9.24724 5.70478 8.96055 5.82274C8.67384 5.9407 8.36668 5.99967 8.03904 5.99967C7.72308 5.99967 7.42909 5.9421 7.15703 5.82694C6.88496 5.71179 6.64653 5.55591 6.44175 5.35931V5.89857H5.56412V0.000518799H6.45053ZM6.55145 4.33981C6.63043 4.51957 6.74015 4.67685 6.88057 4.81167C7.02099 4.94648 7.18481 5.05322 7.37204 5.13186C7.55928 5.2105 7.76113 5.24981 7.97761 5.24981C8.18826 5.24981 8.38717 5.2105 8.57439 5.13186C8.76162 5.05322 8.92396 4.9465 9.06149 4.81167C9.19898 4.67687 9.30868 4.51957 9.39059 4.33981C9.47251 4.16006 9.51346 3.96628 9.51346 3.75844C9.51346 3.55059 9.47251 3.35539 9.39059 3.17283C9.30868 2.99027 9.19898 2.83159 9.06149 2.69678C8.92398 2.56198 8.76164 2.45664 8.57439 2.38082C8.38715 2.305 8.18824 2.26706 7.97761 2.26706C7.76699 2.26706 7.56806 2.30498 7.38083 2.38082C7.19361 2.45666 7.02979 2.56198 6.88935 2.69678C6.74894 2.83159 6.63777 2.99027 6.55586 3.17283C6.47395 3.35539 6.43299 3.55059 6.43299 3.75844C6.43297 3.96628 6.47247 4.16006 6.55145 4.33981ZM10.8913 2.89058C11.0083 2.62095 11.1692 2.38364 11.3739 2.17861C11.5787 1.97358 11.8215 1.81209 12.1024 1.69413C12.3832 1.57617 12.6875 1.5172 13.0151 1.5172C13.3369 1.5172 13.6353 1.57337 13.9103 1.6857C14.1853 1.79805 14.4223 1.95393 14.6212 2.15335C14.8201 2.35274 14.9752 2.58868 15.0863 2.86111C15.1975 3.13355 15.2531 3.42986 15.2531 3.75005V4.0281H11.6109C11.6402 4.20223 11.6987 4.36373 11.7865 4.51256C11.8742 4.66141 11.9839 4.79062 12.1156 4.90015C12.2472 5.0097 12.3964 5.09537 12.5632 5.15714C12.7299 5.21892 12.9069 5.24983 13.0941 5.24983C13.6266 5.24983 14.0566 5.03918 14.3843 4.61788L15.0249 5.07287C14.8026 5.35935 14.5276 5.58404 14.2 5.74694C13.8723 5.90983 13.5037 5.99128 13.0941 5.99128C12.7606 5.99128 12.4491 5.93509 12.1595 5.82276C11.8698 5.71043 11.6183 5.55313 11.4047 5.3509C11.1911 5.14867 11.0229 4.91135 10.9001 4.63893C10.7772 4.36651 10.7158 4.07018 10.7158 3.75001C10.7157 3.44669 10.7743 3.16021 10.8913 2.89058ZM12.1243 2.55775C11.8757 2.75717 11.7104 3.02258 11.6285 3.35399H14.3579C14.2819 3.02258 14.1195 2.75717 13.8708 2.55775C13.6222 2.35835 13.3311 2.25865 12.9976 2.25865C12.6641 2.25865 12.373 2.35835 12.1243 2.55775ZM16.9118 2.65464C16.7245 2.85124 16.6309 3.11806 16.6309 3.4551V5.8986H15.7445V1.60143H16.6221V2.13226C16.7333 1.95813 16.8781 1.8205 17.0565 1.71939C17.235 1.61827 17.4471 1.5677 17.6928 1.5677H18V2.35973H17.6314C17.3389 2.35975 17.099 2.45804 16.9118 2.65464Z" fill="white"/>
</g>
<defs>
<clipPath id="clip0_10_856">
<rect width="18" height="6" fill="white"/>
</clipPath>
</defs>
</svg>
