<svg width="20" height="14" viewBox="0 0 20 14" fill="none" xmlns="http://www.w3.org/2000/svg">
<path d="M3.97905 1H4.01629C4.30033 1.32583 4.62141 1.61443 4.92397 1.9263L6.98138 3.98371V4.02095C5.98535 5.01241 4.9938 6.01319 3.99767 7.00466C2.9969 6.00853 2.00078 5.00776 1 4.01164C1.0513 3.91389 1.14895 3.84872 1.22343 3.76959C2.14042 2.84329 3.07137 1.93095 3.97905 1ZM9.98371 1H10.0209C10.049 1.04189 10.0768 1.07913 10.114 1.11637C11.0776 2.0706 12.0272 3.03879 13 3.98836C12.9767 4.04422 12.9255 4.08146 12.8836 4.12335C11.9202 5.08223 10.9612 6.04577 9.99767 7.00466C8.99224 6.01319 8.00543 5.0031 6.99535 4.01629C7.97285 2.9969 9.00155 2.01474 9.98371 1ZM15.9884 1H16.0256C16.2118 1.22343 16.4306 1.41427 16.6307 1.62374C17.3848 2.37781 18.1343 3.12723 18.8883 3.8813C18.9256 3.9232 18.9861 3.96043 19 4.02095C17.9899 5.0031 17.0124 6.0225 15.9977 7.00466L13.135 4.14197C13.0884 4.09077 13.0279 4.05353 13.0047 3.98836C13.512 3.49496 14.0054 2.98759 14.5081 2.48953C15.0016 1.99147 15.5043 1.50737 15.9884 1ZM7.03724 9.96043C8.0194 8.97828 9.00621 7.99612 9.98837 7.00931L10.0302 7.02793C11.017 8.0194 12.0038 9.01086 12.9999 9.99302C12.9674 10.0675 12.8976 10.1094 12.8463 10.1699C12.1296 10.8821 11.4126 11.6036 10.6958 12.3158C10.4631 12.5392 10.2396 12.7905 10.0023 13C9.66253 12.6928 9.35066 12.3483 9.02008 12.0318C8.34989 11.3615 7.68425 10.6912 7.00931 10.0256C7.01862 10.007 7.02793 9.97905 7.03724 9.96043Z" fill="white" stroke="white" stroke-width="0.161675"/>
</svg>
