<svg width="18" height="11" viewBox="0 0 18 11" fill="none" xmlns="http://www.w3.org/2000/svg">
<g clip-path="url(#clip0_10_805)">
<path d="M7.82937 0.246141C7.82937 0.0714666 7.71762 0 7.5765 0H6.68669C6.33379 0 6.08211 0.180472 6.08211 0.620007V8.39347C6.08211 8.56576 6.19445 8.64021 6.33674 8.64021H7.22477C7.57845 8.64021 7.82934 8.45973 7.82934 8.01937L7.82937 0.246141ZM17.9992 2.86821C17.9992 2.72249 17.8937 2.65043 17.7494 2.65043H16.6696C16.4533 2.65043 16.3574 2.72829 16.2771 2.90694L14.7549 6.35314L12.6321 2.94305C12.5025 2.73107 12.3625 2.65043 12.0478 2.65043H10.7646C10.4988 2.65043 10.3551 2.72249 10.197 2.89574L7.93687 5.37206L9.96307 8.38572C10.0807 8.5588 10.1786 8.64004 10.3551 8.64004H11.5634C11.7442 8.64004 11.8495 8.56579 11.8495 8.4109C11.8495 8.31707 11.8053 8.25557 11.7442 8.16794L9.9631 5.47845L11.3138 3.99428L13.9838 8.01944L12.8053 10.5622C12.773 10.6379 12.7333 10.7099 12.7333 10.782C12.7333 10.9293 12.8392 11 12.9836 11H14.055C14.2727 11 14.367 10.9235 14.4469 10.7444L17.9285 3.0886C17.9624 3.01293 17.9992 2.94305 17.9992 2.86821ZM2.17576 4.72236C1.8209 4.64093 1.71071 4.53851 1.71071 4.35609C1.71071 4.21415 1.8209 4.10097 2.14112 4.10097H4.7318C5.16355 4.10097 5.33797 3.84386 5.33797 3.4847V2.90903C5.33797 2.76411 5.26693 2.6503 5.09702 2.6503H2.06264C0.710316 2.6503 0.00158691 3.44978 0.00158691 4.46645C0.00158691 5.37212 0.546713 5.92328 1.63791 6.17081L3.3789 6.56807C3.733 6.64792 3.84281 6.75173 3.84281 6.93637C3.84281 7.07629 3.733 7.1895 3.41431 7.1895H0.713304C0.281524 7.1895 0.106909 7.44479 0.106909 7.8061V8.38062C0.106909 8.52335 0.176592 8.64014 0.346498 8.64014H3.30905C4.90779 8.64014 5.55252 7.84145 5.55252 6.89526C5.55252 5.91772 5.00018 5.36636 3.91662 5.11982L2.17576 4.72236Z" fill="white"/>
</g>
<defs>
<clipPath id="clip0_10_805">
<rect width="18" height="11" fill="white"/>
</clipPath>
</defs>
</svg>
