<svg width="18" height="10" viewBox="0 0 18 10" fill="none" xmlns="http://www.w3.org/2000/svg">
<path d="M16.519 4.76931C15.9567 3.37652 15.007 2.18942 13.7717 1.33527C12.507 0.46194 11.0244 0 9.48465 0C6.93802 0 4.57478 1.27426 3.1648 3.40964C3.14922 3.4323 3.14576 3.46194 3.15441 3.48808C3.16306 3.51597 3.18383 3.53515 3.20978 3.54387L3.407 3.61185C3.41911 3.61534 3.43122 3.61708 3.4416 3.61708C3.47793 3.61708 3.51253 3.5979 3.53329 3.56827C4.18033 2.60953 5.05573 1.8129 6.06608 1.26206C7.1093 0.693782 8.29092 0.392213 9.48292 0.392213C10.924 0.392213 12.3133 0.821033 13.5035 1.62986C14.6644 2.41952 15.5658 3.52295 16.1107 4.81812C16.1263 4.85647 16.1644 4.88262 16.2059 4.88262H16.4412C16.4688 4.88262 16.4948 4.86868 16.5086 4.84601C16.5259 4.82335 16.5294 4.79546 16.519 4.76931ZM16.1574 4.85124C16.1626 4.85473 16.1678 4.85822 16.173 4.85996C16.1678 4.85647 16.1626 4.85473 16.1574 4.85124Z" fill="white"/>
<path d="M12.7216 6.36966C12.4725 6.42718 11.8168 6.4603 11.8168 6.4603L11.7338 6.72178C11.7338 6.72178 12.0608 6.69389 12.2995 6.71829C12.2995 6.71829 12.3774 6.70958 12.386 6.80719C12.3895 6.89784 12.3791 6.99546 12.3791 6.99546C12.3791 6.99546 12.3739 7.05472 12.2908 7.06867C12.2009 7.08436 11.585 7.10702 11.585 7.10702L11.4846 7.44694C11.4846 7.44694 11.4483 7.52538 11.5314 7.50272C11.6092 7.4818 12.2545 7.35978 12.3393 7.37721C12.4293 7.39987 12.5296 7.52015 12.5002 7.63171C12.4656 7.76768 11.822 8.18256 11.4293 8.15292C11.4293 8.15292 11.2234 8.16687 11.0487 7.88622C10.8861 7.61951 11.111 7.11225 11.111 7.11225C11.111 7.11225 11.0089 6.87518 11.0833 6.79673C11.0833 6.79673 11.1283 6.75664 11.2563 6.74618L11.4137 6.41672C11.4137 6.41672 11.2338 6.42893 11.1265 6.29644C11.0262 6.16919 11.0193 6.11167 11.0954 6.07681C11.1767 6.03671 11.9258 5.899 12.4414 5.91643C12.4414 5.91643 12.6213 5.899 12.7753 6.21277C12.7735 6.21277 12.8497 6.34002 12.7216 6.36966ZM10.7822 7.6352C10.7165 7.79208 10.5418 7.95943 10.3255 7.85484C10.111 7.75025 9.77017 7.04775 9.77017 7.04775C9.77017 7.04775 9.64042 6.78628 9.6162 6.79151C9.6162 6.79151 9.58852 6.74095 9.57122 7.02683C9.55392 7.31271 9.57468 7.86878 9.46222 7.95594C9.35496 8.0431 9.22521 8.00824 9.15774 7.90539C9.09719 7.80429 9.07123 7.56373 9.10411 7.14188C9.1439 6.72003 9.24078 6.2703 9.36534 6.1291C9.48991 5.98965 9.59025 6.09075 9.62831 6.12736C9.62831 6.12736 9.79439 6.27901 10.0695 6.72526L10.1179 6.80719C10.1179 6.80719 10.367 7.22904 10.393 7.2273C10.393 7.2273 10.4138 7.24647 10.4311 7.23253C10.457 7.22555 10.4466 7.08959 10.4466 7.08959C10.4466 7.08959 10.3947 6.63113 10.1681 5.85368C10.1681 5.85368 10.1335 5.75606 10.1577 5.66542C10.1802 5.57303 10.2719 5.61661 10.2719 5.61661C10.2719 5.61661 10.6248 5.79441 10.7944 6.37314C10.9622 6.95711 10.848 7.47831 10.7822 7.6352ZM9.04874 6.14827C9.01933 6.20754 9.00203 6.29296 8.85325 6.31562C8.85325 6.31562 7.42942 6.41324 7.36195 6.51434C7.36195 6.51434 7.31178 6.57361 7.38963 6.59104C7.46748 6.60673 7.78927 6.65031 7.94498 6.65902C8.11106 6.66077 8.67159 6.666 8.87228 6.91876C8.87228 6.91876 8.99165 7.03904 8.98646 7.31097C8.98127 7.58988 8.93283 7.68749 8.82557 7.7886C8.71311 7.88273 7.74775 8.31852 7.12493 7.64914C7.12493 7.64914 6.83775 7.32666 7.22355 7.08261C7.22355 7.08261 7.50208 6.91353 8.20967 7.11225C8.20967 7.11225 8.4242 7.19069 8.41382 7.26913C8.40171 7.35281 8.23735 7.44171 7.99861 7.43648C7.76678 7.42951 7.59724 7.31794 7.63011 7.33537C7.66125 7.34758 7.38098 7.19941 7.29448 7.30051C7.20798 7.3929 7.22874 7.45042 7.31351 7.50795C7.52976 7.63171 8.36538 7.58813 8.6145 7.30923C8.6145 7.30923 8.71312 7.19592 8.5626 7.10353C8.41209 7.01637 7.98131 6.96408 7.81349 6.95536C7.6526 6.94665 7.054 6.95711 6.9675 6.79673C6.9675 6.79673 6.881 6.68866 6.97615 6.38186C7.07649 6.06112 7.7737 5.93735 8.07473 5.90946C8.07473 5.90946 8.90342 5.87983 9.05567 6.05066C9.05394 6.05066 9.07469 6.09075 9.04874 6.14827ZM6.69588 8.02916C6.59554 8.10411 6.38274 8.07099 6.32219 7.98732C6.26164 7.91236 6.24088 7.61428 6.25299 7.14711C6.2651 6.67471 6.27548 6.08901 6.37582 5.99662C6.48309 5.90249 6.54883 5.98442 6.59035 6.04891C6.63533 6.11167 6.68896 6.1814 6.70107 6.32957C6.71145 6.47773 6.74605 7.25519 6.74605 7.25519C6.74605 7.25519 6.79103 7.95594 6.69588 8.02916ZM6.91214 5.52248C6.61976 5.62009 6.41908 5.58697 6.24953 5.51376C6.17514 5.6445 6.13189 5.68459 6.0748 5.69331C5.99175 5.70202 5.91736 5.5678 5.90352 5.52422C5.88968 5.4911 5.84989 5.43532 5.89833 5.30284C5.73225 5.15292 5.72014 4.95072 5.74782 4.81475C5.78934 4.65786 6.06961 4.0617 6.92252 3.99197C6.92252 3.99197 7.33946 3.9606 7.41039 4.18546H7.4225C7.4225 4.18546 7.82733 4.18721 7.81868 4.54979C7.81349 4.91411 7.36887 5.36733 6.91214 5.52248ZM6.11632 4.71539C6.02981 4.85484 6.02635 4.93852 6.06614 4.99604C6.16476 4.84438 6.34468 4.60557 6.60938 4.42428C6.40523 4.44171 6.23396 4.53061 6.11632 4.71539ZM7.29448 4.4818C7.02632 4.5219 6.61111 4.88448 6.41389 5.18082C6.71664 5.2366 7.25123 5.21568 7.48824 4.72933C7.48651 4.72933 7.6007 4.42777 7.29448 4.4818ZM14.5745 7.29005C14.4136 7.57245 13.9621 8.16164 13.36 8.02393C13.1611 8.51027 12.995 9.0001 12.8998 9.73572C12.8998 9.73572 12.8791 9.87866 12.7614 9.82811C12.6455 9.78627 12.4517 9.59104 12.4137 9.32085C12.3722 8.96524 12.5296 8.36384 12.8497 7.67529C12.7562 7.52189 12.6922 7.30225 12.7476 6.99023C12.7476 6.99023 12.8289 6.41149 13.405 5.88854C13.405 5.88854 13.4742 5.82753 13.514 5.84671C13.559 5.86588 13.5382 6.05414 13.5019 6.14479C13.4656 6.23543 13.2078 6.68517 13.2078 6.68517C13.2078 6.68517 13.0469 6.98848 13.0919 7.2273C13.3946 6.75838 14.0832 5.81184 14.5105 6.10992C14.6541 6.21277 14.7198 6.43764 14.7198 6.67994C14.7181 6.89435 14.6679 7.12096 14.5745 7.29005ZM14.4499 6.54746C14.4499 6.54746 14.4257 6.36094 14.2458 6.56664C14.0901 6.73921 13.8098 7.06518 13.5832 7.50621C13.8202 7.48006 14.0486 7.34932 14.1178 7.28308C14.2302 7.18197 14.4915 6.91004 14.4499 6.54746ZM6.05058 6.78453C6.0177 7.20638 5.85681 7.91585 4.71671 8.26623C3.96414 8.49458 3.25309 8.38476 2.86556 8.2854C2.85691 8.44054 2.83961 8.50678 2.81539 8.53293C2.78252 8.56605 2.53685 8.70899 2.40191 8.50678C2.34136 8.41091 2.31022 8.23659 2.29292 8.08145C1.42097 7.67704 1.0196 7.09482 1.00403 7.06867C0.985002 7.04949 0.786047 6.84031 0.985002 6.58407C1.17185 6.35223 1.78255 6.12038 2.33271 6.02625C2.35174 5.55211 2.4071 5.19476 2.47284 5.0309C2.55242 4.8409 2.65277 5.01173 2.73927 5.14072C2.81193 5.2366 2.85518 5.64973 2.85864 5.97919C3.21849 5.96176 3.43129 5.9879 3.83266 6.06112C4.35513 6.15699 4.7046 6.42544 4.67346 6.73049C4.65097 7.03032 4.37762 7.15408 4.27382 7.1628C4.16483 7.17152 3.99528 7.09307 3.99528 7.09307C3.87937 7.03729 3.98663 6.98848 4.12676 6.92747C4.27901 6.85252 4.24441 6.77582 4.24441 6.77582C4.18732 6.60847 3.50914 6.49168 2.83442 6.49168C2.83096 6.86646 2.84999 7.48877 2.85864 7.85135C3.33094 7.942 3.68387 7.92457 3.68387 7.92457C3.68387 7.92457 5.407 7.87576 5.4589 6.7671C5.51253 5.6567 3.74096 4.59162 2.43132 4.25345C1.12341 3.9083 0.382946 4.14886 0.318935 4.18198C0.249733 4.21684 0.313745 4.2273 0.313745 4.2273C0.313745 4.2273 0.384676 4.23776 0.507509 4.2796C0.637263 4.32143 0.53692 4.38942 0.53692 4.38942C0.313745 4.46089 0.0628877 4.41556 0.0144464 4.31272C-0.0339948 4.20987 0.0473176 4.11748 0.14074 3.985C0.234163 3.84555 0.336235 3.85078 0.336235 3.85078C1.95383 3.28599 3.92435 4.30749 3.92435 4.30749C5.77031 5.25054 6.08518 6.35571 6.05058 6.78453ZM1.16839 6.72701C0.985002 6.81765 1.1113 6.94839 1.1113 6.94839C1.45557 7.32143 1.87944 7.55501 2.28254 7.6997C2.32925 7.05647 2.32233 6.82985 2.32752 6.50562C1.69778 6.5492 1.33447 6.65031 1.16839 6.72701ZM18 6.59453V6.82462C18 6.87518 17.9602 6.91527 17.91 6.91527H16.8218C16.8218 6.97279 16.8236 7.02335 16.8236 7.07041C16.8236 7.41033 16.8097 7.68749 16.7769 7.99952C16.7717 8.04659 16.7336 8.08145 16.6886 8.08145H16.4533C16.4291 8.08145 16.4066 8.07099 16.3911 8.05356C16.3755 8.03613 16.3668 8.01172 16.3703 7.98732C16.4032 7.67704 16.4187 7.40336 16.4187 7.07041C16.4187 7.0216 16.4187 6.97105 16.417 6.91527H15.3409C15.2907 6.91527 15.251 6.87518 15.251 6.82462V6.59453C15.251 6.54397 15.2907 6.50388 15.3409 6.50388H16.4014C16.3789 6.1291 16.334 5.76826 16.2613 5.4022C16.2578 5.37954 16.263 5.35688 16.2769 5.33944C16.2907 5.32201 16.3115 5.31155 16.334 5.31155H16.5883C16.6281 5.31155 16.6609 5.33944 16.6696 5.37954C16.7405 5.75781 16.7855 6.12561 16.808 6.50388H17.91C17.9585 6.50388 18 6.54572 18 6.59453Z" fill="white"/>
</svg>
