<svg width="18" height="18" viewBox="0 0 18 18" fill="none" xmlns="http://www.w3.org/2000/svg">
<path fill-rule="evenodd" clip-rule="evenodd" d="M12.7602 9.12353C12.7602 5.48647 14.0548 3.20552 15.6575 2.959C14.0548 1.0481 11.4041 0 8.99992 0C6.3492 0 3.94499 1.10959 2.28087 2.959C3.88349 3.26728 4.3768 4.62339 4.3768 6.65756H2.46589C2.46589 5.4247 2.21937 4.80841 1.47956 4.80841C1.17128 4.80841 0.924759 4.99317 0.801501 5.23995C0.801501 5.30145 0.740006 5.36321 0.740006 5.36321C0.677974 5.54796 0.616211 5.73299 0.616211 5.91774C0.616211 8.38344 4.7463 8.26018 4.7463 12.144C4.7463 13.6231 3.57521 15.0413 2.2806 15.0413C4.00675 16.8907 6.28743 18 8.99965 18C11.5886 18 13.9311 16.8907 15.5954 15.1028C14.0546 14.733 12.7602 12.575 12.7602 9.12353ZM11.8972 15.0413H9.80123V9.92484H7.58205V15.0413H5.54788V3.20552H7.58205V8.01393H9.80123V3.20552H11.8972V15.0413Z" fill="white"/>
<path fill-rule="evenodd" clip-rule="evenodd" d="M1.78765 13.1918C2.34244 13.1918 2.77398 12.6371 2.77398 11.8975C2.77398 10.4179 1.41787 10.1096 0 8.81497V9.30854C0.0512905 11.6284 0.865224 13.1918 1.78765 13.1918ZM14.7945 8.93823C14.7945 6.90407 15.3493 4.9314 16.3971 4.9314C17.6917 4.9314 18 8.01366 18 8.99972C18 11.0959 17.3219 13.0683 16.3971 13.0683C15.3493 13.0686 14.7945 11.0342 14.7945 8.93823Z" fill="white"/>
</svg>
