<svg width="16" height="13" viewBox="0 0 16 13" fill="none" xmlns="http://www.w3.org/2000/svg">
<path d="M15.6779 2.36031C15.173 2.36031 14.815 2.79369 14.815 3.45895V5.89925H14.0443V1.60392H14.8057V2.12843C14.8996 1.95459 15.0342 1.81146 15.1955 1.7139C15.3568 1.61633 15.539 1.56787 15.7231 1.57354H16V2.36031H15.6779ZM13.5118 3.75158C13.5118 2.47068 12.6811 1.51278 11.557 1.51278C11.2914 1.51476 11.0288 1.57434 10.7842 1.68809C10.5397 1.80184 10.3181 1.96751 10.1321 2.17558C9.94613 2.38365 9.7995 2.63001 9.70065 2.90048C9.60179 3.17095 9.55266 3.4602 9.55607 3.75158C9.55607 5.03147 10.4559 5.99949 11.6299 5.99949C11.9578 6.00629 12.2824 5.9265 12.5764 5.76684C12.8703 5.60718 13.125 5.37234 13.3189 5.0821L12.7596 4.63252C12.6313 4.829 12.4615 4.98846 12.2647 5.09726C12.068 5.20606 11.8502 5.26097 11.6299 5.25728C11.3162 5.25565 11.0133 5.13077 10.7763 4.90526C10.5392 4.67975 10.3837 4.36853 10.3378 4.02801H13.5136L13.5118 3.75158ZM10.3544 3.35769C10.4919 2.70256 10.9691 2.25905 11.5478 2.25905C12.1264 2.25905 12.6027 2.70256 12.7319 3.35769H10.3544ZM7.1149 1.51278C6.85736 1.51302 6.60241 1.56925 6.36479 1.67822C6.12717 1.78719 5.91159 1.94675 5.7305 2.14767V0H4.95985V5.89925H5.72127V5.35449C6.09014 5.76388 6.59206 5.99588 7.11675 5.99949C7.38893 6.00584 7.65952 5.9525 7.91266 5.84261C8.16581 5.73273 8.39641 5.56849 8.59094 5.35955C8.78548 5.15061 8.94004 4.90116 9.04555 4.62582C9.15107 4.35049 9.20542 4.05482 9.20542 3.75614C9.20542 3.45746 9.15107 3.16179 9.04555 2.88645C8.94004 2.61112 8.78548 2.36167 8.59094 2.15273C8.39641 1.94378 8.16581 1.77955 7.91266 1.66966C7.65952 1.55978 7.38893 1.50644 7.11675 1.51278H7.1149ZM7.05953 5.24411C6.79091 5.24552 6.52797 5.15934 6.30406 4.99653C6.08015 4.83372 5.90538 4.6016 5.80191 4.32963C5.69843 4.05766 5.67093 3.7581 5.72289 3.46896C5.77484 3.17981 5.90392 2.91412 6.09373 2.70558C6.28355 2.49705 6.52554 2.35507 6.78902 2.29768C7.0525 2.24028 7.32558 2.27004 7.57361 2.38319C7.82165 2.49634 8.03345 2.68778 8.18216 2.93321C8.33087 3.17864 8.40977 3.467 8.40886 3.76171C8.4091 3.95609 8.37436 4.14862 8.30661 4.32824C8.23886 4.50785 8.13945 4.67102 8.01408 4.80838C7.88871 4.94573 7.73985 5.05458 7.57604 5.12866C7.41224 5.20274 7.23671 5.2406 7.05953 5.24006V5.24411ZM2.12183 5.20361C2.86571 5.20361 3.44347 4.57784 3.44347 3.6402V0H4.24181V5.89925H3.4527V5.34132C3.26834 5.55037 3.04724 5.71621 2.80278 5.82881C2.55832 5.94142 2.29558 5.99845 2.03046 5.99646C0.883249 5.99646 0 5.07906 0 3.68779V0H0.813106V3.64526C0.813106 4.58797 1.36687 5.20361 2.12183 5.20361Z" fill="white"/>
<path d="M0 7H3.77269V8.01087H1.0191V9.4463H3.69607V10.4228H1.0191V11.8825H3.77269V12.8934H0V7ZM14.1917 12.9995C15.3483 12.9995 16 12.393 16 11.56C16 10.9666 15.6141 10.5239 14.8064 10.3318L13.9526 10.1408C13.4569 10.0397 13.3009 9.93859 13.3009 9.73642C13.3009 9.4746 13.54 9.31387 13.9803 9.31387C14.4575 9.31387 14.8111 9.45438 14.9034 9.93758H15.904C15.8495 9.0278 15.2523 8.42734 14.0412 8.42734C12.9944 8.42734 12.2596 8.90043 12.2596 9.81729C12.2596 10.4511 12.6639 10.8635 13.5363 11.0647L14.4907 11.3063C14.8674 11.3872 14.968 11.4984 14.968 11.6692C14.968 11.9411 14.6837 12.112 14.224 12.112C13.6461 12.112 13.3156 11.9714 13.1873 11.4882H12.1812C12.3279 12.396 12.9427 12.9995 14.1917 12.9995ZM11.8904 12.8893H10.8076C10.1282 12.8893 9.75157 12.4263 9.75157 11.8421V9.52717H8.99002V8.54056H9.75526V7.30225H10.7614V8.54056H11.8904V9.52717H10.7614V11.56C10.7614 11.7915 10.9082 11.9027 11.1381 11.9027H11.8904V12.8893ZM7.55184 8.54258V8.9348C7.19758 8.60686 6.7483 8.42769 6.28443 8.42937C6.00671 8.42297 5.73062 8.47734 5.47234 8.58931C5.21407 8.70127 4.9788 8.86856 4.78032 9.08138C4.58185 9.2942 4.42417 9.54827 4.31652 9.82869C4.20887 10.1091 4.15342 10.4102 4.15342 10.7144C4.15342 11.0186 4.20887 11.3198 4.31652 11.6002C4.42417 11.8806 4.58185 12.1347 4.78032 12.3475C4.9788 12.5603 5.21407 12.7276 5.47234 12.8396C5.73062 12.9515 6.00671 13.0059 6.28443 12.9995C6.74838 13.0017 7.19782 12.8225 7.55184 12.4941V12.8873H8.55524V8.54056L7.55184 8.54258ZM6.36751 12.0452C6.12682 12.0482 5.89074 11.9728 5.68929 11.8285C5.48784 11.6843 5.3301 11.4777 5.23612 11.235C5.14215 10.9923 5.11618 10.7245 5.16152 10.4657C5.20685 10.2068 5.32145 9.96852 5.49074 9.78113C5.66003 9.59375 5.87638 9.46571 6.11227 9.41329C6.34817 9.36087 6.59298 9.38644 6.81557 9.48675C7.03817 9.58705 7.22851 9.75757 7.3624 9.97662C7.4963 10.1957 7.5677 10.4534 7.56753 10.717C7.56899 10.8907 7.53897 11.0631 7.47921 11.224C7.41944 11.385 7.33112 11.5314 7.21934 11.6548C7.10757 11.7781 6.97456 11.8759 6.82803 11.9426C6.6815 12.0093 6.52434 12.0435 6.36566 12.0432L6.36751 12.0452Z" fill="white"/>
</svg>
