<svg width="18" height="17" viewBox="0 0 18 17" fill="none" xmlns="http://www.w3.org/2000/svg">
<path fill-rule="evenodd" clip-rule="evenodd" d="M12.4699 0.654912C10.8799 0.994456 9.68206 2.37569 9.68206 4.02872C9.68206 4.06443 9.6916 4.10679 9.69228 4.14216C12.2066 4.66423 13.4745 6.31836 13.4745 8.50022C13.4745 10.9515 11.4208 12.9387 8.90998 12.9387C6.39848 12.9387 4.05327 10.894 4.05327 7.86172C4.05327 4.16012 7.30357 0.687514 11.9357 0.577733C12.0193 0.575848 12.152 0.578731 12.2869 0.58483C11.269 0.207474 10.1599 0 9.00029 0C4.02976 0 0 3.80583 0 8.50022C0 13.1945 4.02976 17 9.00029 17C13.9706 17 18 13.1945 18 8.50022C18 4.96729 15.7177 1.93801 12.4699 0.654912Z" fill="white"/>
</svg>
