<svg width="18" height="11" viewBox="0 0 18 11" fill="none" xmlns="http://www.w3.org/2000/svg">
<path d="M14.8199 5.01944L14.5597 4.95537V4.69904C14.5597 2.3927 12.6737 0.53479 10.3976 0.53479C8.70665 0.53479 7.14593 1.55991 6.49551 3.09746L6.30051 3.54601L5.97533 3.2256C5.65003 2.90531 5.19483 2.7131 4.73957 2.7131C4.50871 2.71216 4.27995 2.75625 4.06649 2.84284C3.85302 2.92944 3.65907 3.05682 3.49583 3.21763C3.33259 3.37844 3.20329 3.56951 3.11539 3.7798C3.02749 3.99009 2.98273 4.21545 2.98369 4.44287L3.04867 4.82735L2.78852 4.8913C1.55288 5.27578 0.707397 6.36485 0.707397 7.58212C0.707397 9.11967 2.00814 10.4011 3.5689 10.4011H14.3645C15.8602 10.4011 17.1609 9.18369 17.1609 7.64619C17.0961 6.36485 16.1856 5.27572 14.8199 5.01944Z" fill="white"/>
</svg>
