<svg width="20" height="15" viewBox="0 0 20 15" fill="none" xmlns="http://www.w3.org/2000/svg">
<path d="M8.10971 8.0553H10.2082L12.0786 5.39536H6.23435L4.30667 2.66023H14.0012L15.8714 2.08766e-08H1.55431C1.27887 -4.17517e-05 1.00837 0.0626052 0.770537 0.18152C0.532703 0.300434 0.33609 0.471339 0.200852 0.676716C0.0654731 0.881845 -0.00378765 1.11408 0.000159775 1.34965C0.0041072 1.58522 0.081121 1.81566 0.223317 2.01738L8.66967 13.9992C8.80805 14.1954 9.00329 14.3576 9.23646 14.4701C9.46963 14.5826 9.73282 14.6417 10.0005 14.6415C10.2681 14.6416 10.5312 14.5825 10.7643 14.47C10.9974 14.3575 11.1925 14.1953 11.3308 13.9992L11.8167 13.3099L8.10971 8.0553Z" fill="white"/>
<path d="M15.688 2.66023H15.6932V2.6608L19.3232 2.66138L19.7767 2.01738C19.9189 1.81566 19.9959 1.58521 19.9999 1.34963C20.0038 1.11405 19.9345 0.881818 19.799 0.676716C19.6639 0.471353 19.4674 0.300448 19.2296 0.18153C18.9918 0.0626121 18.7214 -3.978e-05 18.446 1.89496e-08H17.5585L15.688 2.66023ZM14.8021 3.92541L10.8512 9.54032L12.6608 12.1114L18.432 3.92541H14.8021Z" fill="white"/>
</svg>
