<svg enable-background="new 0 0 100 100" viewBox="0 0 100 100" xmlns="http://www.w3.org/2000/svg"><g id="Layer_1"/><g id="Layer_2"><g><g fill="#520094"><path d="m94.357 4.571c0-.249-.039-.498-.075-.936-26.954 0-53.901.011-80.854-.031-1.24-.002-1.786.356-2.203 1.528-1.567 4.412-3.255 8.78-4.912 13.159-.177.469-.447.903-.674 1.353v64.37c7.439.113 14.843-.127 22.279.215v12.164h12.068c3.169-3.23 6.449-6.36 9.466-9.727 1.769-1.974 3.651-2.764 6.301-2.633 4.319.214 8.657.114 12.984.009.863-.021 1.924-.437 2.533-1.037 7.413-7.31 14.769-14.679 22.101-22.07.486-.49.948-1.281.95-1.933.05-18.142.04-36.286.036-54.431zm-7.847 49.945c.002 1.062-.289 1.829-1.049 2.576-4.079 4.012-8.085 8.1-12.193 12.082-.582.564-2.581.973-3.393.983-6.442.079-11.91.009-18.352.088-.812.01-1.806.427-2.394.991-3.853 3.642-7.247 7.334-11.153 10.983 0-3.69-.12-7.113-.116-10.754.02-1.08-.352-1.271-1.427-1.261l-6.837.02c-1.323-.006-8.545.004-9.784 0 0-19.6 0-38.814 0-58.474 22.229-.001 44.472.001 66.697 0-.074 16.135-.003 26.782.001 42.766z"/><path d="m72.653 28.926c.005-.899-.74-1.625-1.64-1.628-2.167-.007-4.794-.026-4.794-.026s-1.588.411-1.58 1.626c.041 5.837.063 17.09.088 21.322.005.911.752 1.638 1.663 1.63 1.621-.014 3.159-.034 4.693.032 1.254.054 1.607-.38 1.598-1.618-.052-7.111-.024-14.225-.028-21.338z"/><path d="m49.932 28.926c.006-.899-.74-1.625-1.64-1.628-2.167-.007-4.794-.026-4.794-.026s-1.588.411-1.58 1.626c.041 5.837.063 17.09.088 21.322.005.911.752 1.638 1.663 1.63 1.62-.014 3.159-.034 4.693.032 1.254.054 1.607-.38 1.598-1.618-.052-7.111-.023-14.225-.028-21.338z"/></g></g></g></svg>