<svg width="12" height="18" viewBox="0 0 12 18" fill="none" xmlns="http://www.w3.org/2000/svg">
<path fill-rule="evenodd" clip-rule="evenodd" d="M6 0C2.69147 0 0 2.54035 0 5.66125C0 6.85022 0.391641 7.99175 1.13135 8.9621L1.29114 9.17092L4.4146 13.3302C4.4146 13.3302 4.79602 13.918 5.62719 13.918H6.37335C7.20506 13.918 7.58487 13.3302 7.58487 13.3302L10.7094 9.17092L10.8676 8.9621C11.6032 8.00597 12 6.84921 12 5.66125C12 2.54035 9.30853 0 6 0ZM8.4693 7.33282L8.30306 7.55246L6.00054 10.6187L3.70125 7.55865L3.53232 7.33643C3.15793 6.85154 2.95544 6.26447 2.95454 5.66125C2.95454 4.07682 4.32099 2.78783 5.99947 2.78783C7.67902 2.78783 9.04492 4.07682 9.04492 5.66125C9.04492 6.26192 8.84588 6.83991 8.4693 7.33282ZM4.31238 16.4718V16.4604C4.31238 15.6148 5.02412 14.9142 5.98548 14.9142C6.94791 14.9142 7.65373 15.603 7.65373 16.4491V16.4604C7.65373 17.2998 6.94146 18 5.97418 18C5.01928 18 4.31238 17.3117 4.31238 16.4718Z" fill="white"/>
</svg>
