<svg width="18" height="13" viewBox="0 0 18 13" fill="none" xmlns="http://www.w3.org/2000/svg">
<path d="M1.09926 9.47742C0.477161 9.89677 0.684529 10.6935 2.01168 11.071C3.38031 11.5323 4.87336 11.6581 6.32493 11.4065C6.40788 11.4065 6.49083 11.3645 6.5323 11.3645V9.93871L5.1222 10.4C4.58304 10.5677 4.04389 10.6097 3.50473 10.4839C3.08999 10.3581 3.17294 10.1065 3.67062 9.89677L6.5323 8.89032V7.33871L2.55084 8.72258C2.05316 8.89032 1.55547 9.14193 1.09926 9.47742ZM10.7211 3.1871V7.25484C12.4215 8.09355 13.7487 7.25484 13.7487 5.07419C13.7487 2.85161 12.9607 1.84516 10.6797 1.04839C9.47692 0.629032 8.23272 0.251613 6.98851 0V12.1194L9.89166 13V2.80968C9.89166 2.34839 9.89166 2.0129 10.2234 2.13871C10.6797 2.26452 10.7211 2.72581 10.7211 3.1871ZM16.1127 8.5129C14.91 8.09355 13.6243 7.92581 12.3801 8.05161C11.7165 8.09355 11.0944 8.26129 10.5138 8.47097L10.3893 8.5129V10.1484L13.0851 9.14194C13.6243 8.97419 14.1634 8.93226 14.7026 9.05806C15.1173 9.18387 15.0344 9.43548 14.5367 9.64516L10.3893 11.1968V12.7903L16.1127 10.6516C16.5274 10.4839 16.9007 10.2742 17.2325 9.93871C17.5228 9.51935 17.3984 8.93226 16.1127 8.5129Z" fill="white"/>
</svg>
