<svg width="18" height="5" viewBox="0 0 18 5" fill="none" xmlns="http://www.w3.org/2000/svg">
<path d="M0.564607 0.0022701H4.43588L4.27167 1.42766H0.407147L0.564607 0.0022701ZM0.337415 1.95174H4.21321L4.09396 3.11129H1.67135L1.60834 3.66575H4.03548L3.88477 4.98986H0L0.337415 1.95174ZM4.49886 1.42766C4.49886 1.42766 4.52585 0.941558 4.63383 0.688381C4.73505 0.450394 4.87002 0.278233 5.09723 0.133922C5.2322 0.0529056 5.47289 0.0022701 5.47289 0.0022701H12.4461C12.4461 0.0022701 12.7385 0.00733364 12.8645 0.0655644C12.9995 0.128859 13.1952 0.222534 13.2987 0.506093C13.3999 0.776993 13.3797 0.865605 13.3797 1.1365C13.3797 1.40234 13.3729 1.42766 13.3729 1.42766H4.49886ZM4.43588 1.96439H8.0035C8.0035 1.96439 8.32067 1.96439 8.46688 2.06313C8.61984 2.17706 8.68957 2.31631 8.73456 2.53658C8.77728 2.75684 8.65808 3.86829 8.58835 4.13919C8.51187 4.40502 8.42189 4.65567 8.05296 4.86328C7.72232 5.05316 7.22067 4.98986 7.22067 4.98986H4.13895L4.32118 3.66575H7.2072L7.26568 3.10369H5.27494C5.27494 3.10369 4.95104 3.15433 4.64737 2.85814C4.46292 2.68091 4.44265 2.41001 4.4314 2.29102C4.41788 2.22264 4.43588 1.96439 4.43588 1.96439ZM9.07645 1.96439H13.2851C13.2851 1.96439 13.2469 2.51126 13.1322 2.7062C13.0174 2.90875 12.9162 3.01761 12.725 3.06569C12.5293 3.11633 12.2369 3.11633 12.2369 3.11633H10.4059L10.2147 4.98984H8.74579L9.07645 1.96439ZM13.5708 1.44032H17.9437C17.9437 1.44032 18.0269 1.00992 17.9819 0.739016C17.937 0.468116 17.829 0.285829 17.6513 0.154177C17.4174 -0.030643 16.99 0.0022701 16.9967 0.0022701H13.7485L13.5708 1.44032ZM13.5146 1.96439H14.9632L14.6325 4.98986H13.1952L13.5146 1.96439ZM16.4253 1.97705H17.8605L17.5298 4.98986H16.1014L16.4253 1.97705Z" fill="white"/>
</svg>
