<svg enable-background="new 0 0 100 100" viewBox="0 0 100 100" xmlns="http://www.w3.org/2000/svg"><g id="Layer_1"/><g id="Layer_2"><g><g fill="#181ef2"><path d="m41.049 47.011c5.099-2.451 7.725-6.061 7.717-11.803.262-7.054-3.98-12.05-10.709-13.297-4.85-1.352-28.659-.491-34.078-.719v56.615h18.472c3.942-.114 10.233.269 14.061-.465 3.231-.528 6.21-1.714 8.748-3.424 9.523-6.433 7.911-24.184-4.211-26.907zm-24.603-16.174h11.662c2.036.013 4.254.235 5.95 1.273 3.486 1.769 3.386 8.388.487 10.369-1.448 1.063-3.277 1.587-5.486 1.587-3.068.004-9.514-.003-12.614 0 .001.001.001-13.229.001-13.229zm21.76 33.514c-1.605 3.094-5.188 3.803-8.459 3.815h-13.301v-15.59h13.552c2.683 0 4.864.617 6.5 1.858 2.458 1.551 3.181 7.126 1.708 9.917z"/><path d="m95.166 50.896c-6.178-24.2-40.695-17.878-40.103 6.444-.093 8.599 4.091 16.852 12.254 19.977 6.116 2.489 15.32 2.017 20.614-1.639 3.298-2.12 5.717-5.643 7.31-10.578h-9.915c-2 5.934-12.159 6.986-16.17 2.877-1.692-1.647-2.788-4.715-2.788-7.955h29.581c.212-3.18-.046-6.218-.783-9.126zm-28.798 2.03c.158-4.888 4.077-9.047 9.355-8.768 2.765 0 5.032.801 6.37 2.282 1.343 1.493 2.326 3.615 2.595 6.486z"/><path d="m64.065 24.991h22.949v5.587h-22.949z"/></g></g></g></svg>