<svg width="18" height="13" viewBox="0 0 18 13" fill="none" xmlns="http://www.w3.org/2000/svg">
<g clip-path="url(#clip0_10_873)">
<path d="M11.9997 6.29573C10.3539 5.39137 8.77799 4.55995 7.16711 3.69189V8.88484C8.86224 7.93734 10.649 7.06962 12.0067 6.29573H11.9997Z" fill="#FE0000"/>
<path d="M11.9997 6.29573C10.3539 5.39137 7.16711 3.69189 7.16711 3.69189L11.4159 6.62823C11.4159 6.62823 10.642 7.06962 11.9997 6.29573Z" fill="#FE0000"/>
<path d="M7.47694 12.9499C4.05838 12.8851 2.89077 12.8269 2.17309 12.6749C1.68753 12.5739 1.26558 12.3496 0.956192 12.0243C0.717076 11.7781 0.526915 11.4024 0.379382 10.8813C0.252831 10.4471 0.203542 10.0858 0.133272 9.20335C0.0257032 7.21178 5.98207e-05 5.58353 0.133272 3.7642C0.243173 2.75951 0.296457 1.56683 1.02646 0.871012C1.37115 0.545362 1.77212 0.335795 2.22238 0.24916C2.92574 0.111846 5.92235 0.0032959 9.02454 0.0032959C12.1197 0.0032959 15.123 0.111846 15.827 0.24916C16.3895 0.357711 16.917 0.683018 17.2268 1.10249C17.8928 2.17978 17.9045 3.51936 17.9721 4.5672C18.0001 5.06646 18.0001 7.90143 17.9721 8.40069C17.8668 10.0567 17.7823 10.6426 17.5431 11.2501C17.3953 11.6336 17.2691 11.8359 17.0506 12.0602C16.708 12.4054 16.2712 12.635 15.7984 12.7184C12.8401 12.9471 10.328 12.9968 7.47694 12.9499ZM12.0072 6.29578C10.3613 5.39142 8.78542 4.55281 7.17455 3.68476V8.87804C8.86968 7.93054 10.6567 7.06248 12.0142 6.28859L12.0072 6.29578Z" fill="white"/>
</g>
<defs>
<clipPath id="clip0_10_873">
<rect width="18" height="13" fill="white"/>
</clipPath>
</defs>
</svg>
