<svg width="15" height="4" viewBox="0 0 15 4" fill="none" xmlns="http://www.w3.org/2000/svg">
<path d="M1.13788 3.18683C0.539673 3.18683 0 2.81202 0 1.99285C0 1.17373 0.539673 0.798868 1.13788 0.798868C1.73613 0.798868 2.275 1.17373 2.275 1.99285C2.27495 2.81202 1.73608 3.18683 1.13788 3.18683ZM1.13788 1.30235C0.685624 1.30235 0.603019 1.70323 0.603019 1.99285C0.603019 2.28247 0.685624 2.68414 1.13788 2.68414C1.59018 2.68414 1.67278 2.28252 1.67278 1.99285C1.67278 1.70318 1.59018 1.30235 1.13788 1.30235ZM2.68996 0.858558H3.26574V1.12449C3.37559 0.980864 3.64582 0.811966 3.89926 0.811966C3.92333 0.811966 3.95297 0.811967 3.97785 0.815126V1.37463H3.94816C3.68514 1.37463 3.39725 1.41486 3.30421 1.61608V3.12096H2.68996V0.858558ZM5.58563 2.92406C5.35146 3.07558 5.09807 3.14897 4.82543 3.14897C4.3964 3.14897 4.14216 2.86804 4.14216 2.49081C4.14216 1.98421 4.61528 1.71665 5.59045 1.60856V1.4823C5.59045 1.31814 5.46375 1.2219 5.22958 1.2219C4.99541 1.2219 4.80537 1.31345 4.66819 1.4823L4.26003 1.25344C4.47414 0.958289 4.8005 0.810713 5.23916 0.810713C5.83902 0.810713 6.17581 1.06643 6.17581 1.4823C6.17581 1.4823 6.17501 3.11822 6.17581 3.12217H5.6393L5.58563 2.92406ZM4.73801 2.44742C4.73801 2.59969 4.83506 2.74173 5.01065 2.74173C5.20069 2.74173 5.38596 2.66444 5.57119 2.50344V1.96758C5.00584 2.03628 4.73801 2.17986 4.73801 2.44742ZM6.65403 0.918851L7.15523 0.850986L7.21055 1.11924C7.49283 0.915646 7.71737 0.807553 7.99964 0.807553C8.47276 0.807553 8.71737 1.05453 8.71737 1.54385V3.11897H8.11189V1.64721C8.11189 1.37017 8.03892 1.24554 7.81994 1.24554C7.63953 1.24554 7.45907 1.326 7.25303 1.49647V3.11897H6.65403V0.918851ZM10.1982 2.63471C10.6569 2.6316 10.6962 2.1715 10.6962 1.8724C10.6962 1.51728 10.5206 1.23082 10.1942 1.23082C9.97689 1.23082 9.73388 1.38703 9.73388 1.89688C9.73393 2.1755 9.75399 2.63866 10.1982 2.63471ZM11.2776 0.850475V2.99299C11.2776 3.37022 11.2472 3.99443 10.1526 3.99996C9.70028 4.00312 9.28088 3.82479 9.19747 3.43651L9.79416 3.34179C9.81894 3.45309 9.88876 3.56355 10.2272 3.56355C10.5408 3.56355 10.6915 3.41597 10.6915 3.06243V2.79887L10.6835 2.79097C10.5872 2.96061 10.4413 3.12087 10.09 3.12087C9.55357 3.12087 9.13176 2.7547 9.13176 1.98997C9.13176 1.23319 9.56721 0.809412 10.0555 0.808622C10.515 0.807832 10.6843 1.0138 10.7244 1.12189L10.7164 1.1211L10.7669 0.850428H11.2776V0.850475ZM12.7244 3.1623C12.0469 3.1623 11.6427 2.733 11.6427 1.98881C11.6427 1.23597 12.0517 0.807461 12.7148 0.807461C13.378 0.807461 13.7725 1.22334 13.7725 1.9588C13.7725 1.99828 13.7677 2.03693 13.7677 2.07562H12.2368C12.2408 2.50493 12.4221 2.72111 12.7781 2.72111C13.0067 2.72111 13.1582 2.63039 13.3002 2.43154L13.7428 2.67299C13.548 2.9942 13.1968 3.1623 12.7244 3.1623ZM13.1783 1.68975C13.1783 1.3875 13.0019 1.20917 12.7148 1.20917C12.4414 1.20917 12.2705 1.38355 12.2465 1.68975H13.1783ZM14.8084 4.60713e-05L14.5855 0.567448L14.3586 4.60713e-05H14.1645V0.748142H14.2903V0.123932H14.2936L14.5429 0.748142H14.6231L14.8709 0.123932H14.8749V0.748142H15V4.60713e-05H14.8084ZM13.4091 4.60713e-05V0.0994984H13.6465V0.748189H13.7723V0.0994516H14.0106V0L13.4091 4.60713e-05Z" fill="white"/>
</svg>
