<svg width="20" height="7" viewBox="0 0 20 7" fill="none" xmlns="http://www.w3.org/2000/svg">
<path d="M3.91423 1.1101C4.16758 0.798631 4.29225 0.399315 4.2641 0C3.86195 0.0399315 3.48796 0.231603 3.22254 0.535082C2.95713 0.830576 2.8204 1.21791 2.84855 1.61323C3.26276 1.62521 3.65686 1.43754 3.91423 1.1101ZM4.25605 1.68112C3.67697 1.64518 3.18233 2.00856 2.91691 2.00856C2.6515 2.00856 2.21718 1.69709 1.75472 1.70508C1.14346 1.72105 0.588499 2.06047 0.298955 2.59156C-0.32839 3.66172 0.134076 5.25898 0.745335 6.11352C1.0389 6.55676 1.39279 7 1.8633 7C2.3338 7 2.47858 6.71649 3.01745 6.71649C3.55632 6.71649 3.70914 7 4.17965 6.99201C4.65016 6.98403 4.96785 6.54877 5.26141 6.12949C5.47053 5.82601 5.63139 5.49059 5.74399 5.13919C5.17294 4.88762 4.80699 4.32459 4.81101 3.70565C4.81906 3.16258 5.1086 2.65944 5.57509 2.37593C5.2775 1.95665 4.79895 1.69709 4.2842 1.68112M8.82843 1.11409V2.22019H9.72119V2.98289H8.82843V5.57844C8.82843 5.98175 9.00538 6.16942 9.4035 6.16942C9.51208 6.16942 9.61664 6.16144 9.72521 6.14546V6.90416C9.54827 6.93611 9.36731 6.95208 9.18634 6.94809C8.22522 6.94809 7.8472 6.58871 7.8472 5.67827V2.99487H7.1716V2.22019H7.85927V1.11409H8.82843ZM12.9906 6.93611H11.9531L10.24 2.22019H11.2775L12.4678 5.98175L13.6743 2.22019H14.6917L12.9906 6.93611ZM20 4.10896H18.1099V2.22818H17.2091V4.10896H15.3271V4.99144H17.2091V6.8842H18.1099V4.99144H20V4.10896Z" fill="white"/>
</svg>
