<svg width="18" height="16" viewBox="0 0 18 16" fill="none" xmlns="http://www.w3.org/2000/svg">
<g clip-path="url(#clip0_10_798)">
<path d="M17.9894 3.70138C17.9087 5.50166 16.6854 7.96731 14.3195 11.0976C11.873 14.3658 9.80224 16.0007 8.1088 16.0007C7.06048 16.0007 6.17272 15.0037 5.44696 13.0091L3.99544 7.52447C3.45688 5.5291 2.87872 4.53216 2.26096 4.53216C2.12632 4.53216 1.65616 4.82294 0.849039 5.40449L0.00231934 4.28293C0.882159 3.48627 1.75552 2.68293 2.62384 1.87292C3.8068 0.820343 4.69384 0.26624 5.28568 0.211349C6.68392 0.0726374 7.54432 1.05623 7.86688 3.16137C8.21608 5.43267 8.45872 6.84575 8.59264 7.39911C8.99584 9.28246 9.43936 10.2245 9.9232 10.2245C10.2998 10.2245 10.8642 9.61478 11.6174 8.39605C12.3705 7.17732 12.7737 6.24936 12.827 5.61218C12.9342 4.55961 12.531 4.03295 11.6174 4.03295C11.1875 4.03295 10.7433 4.13012 10.2868 4.32373C11.1738 1.35961 12.868 -0.0801674 15.3686 0.0029109C17.2233 0.0585437 18.0966 1.29137 17.9894 3.70138Z" fill="white"/>
</g>
<defs>
<clipPath id="clip0_10_798">
<rect width="18" height="16" fill="white"/>
</clipPath>
</defs>
</svg>
