<svg width="13" height="18" viewBox="0 0 13 18" fill="none" xmlns="http://www.w3.org/2000/svg">
<g clip-path="url(#clip0_10_822)">
<path d="M6.5 9C6.5 7.34317 7.95477 6 9.74935 6C11.5439 6 12.9987 7.34317 12.9987 9C12.9987 10.6569 11.5439 12 9.74935 12C7.95477 12 6.5 10.6569 6.5 9Z" fill="white"/>
<path d="M0.00134277 15C0.00134277 13.3432 1.45611 12 3.25069 12H6.50004V15C6.50004 16.6569 5.04527 18 3.25069 18C1.45611 18 0.00134277 16.6569 0.00134277 15Z" fill="white"/>
<path d="M6.5 6.10352e-05V6.00002H9.74935C11.5439 6.00002 12.9987 4.65689 12.9987 3.00002C12.9987 1.34315 11.5439 6.10352e-05 9.74935 6.10352e-05H6.5Z" fill="white"/>
<path d="M0.0012207 3C0.0012207 4.65687 1.45599 6 3.25057 6H6.49992V0H3.25057C1.45599 0 0.0012207 1.34317 0.0012207 3Z" fill="white"/>
<path d="M0.00134277 9C0.00134277 10.6569 1.45611 12 3.25069 12H6.50004V6H3.25069C1.45611 6 0.00134277 7.34317 0.00134277 9Z" fill="white"/>
</g>
<defs>
<clipPath id="clip0_10_822">
<rect width="13" height="18" fill="white"/>
</clipPath>
</defs>
</svg>
