<svg width="16" height="17" viewBox="0 0 16 17" fill="none" xmlns="http://www.w3.org/2000/svg">
<g clip-path="url(#clip0_10_845)">
<path d="M13.9853 3.33828C13.9727 3.25328 13.8928 3.20624 13.8267 3.20106C13.7608 3.19594 12.3654 3.09959 12.3654 3.09959C12.3654 3.09959 11.3963 2.2033 11.29 2.1041C11.1836 2.00495 10.9757 2.03511 10.895 2.05723C10.8831 2.06049 10.6833 2.11795 10.3527 2.21326C10.029 1.34544 9.45767 0.547955 8.45258 0.547955C8.42483 0.547955 8.39627 0.549003 8.36771 0.550517C8.08187 0.198349 7.72778 0.0453491 7.42193 0.0453491C5.0806 0.0453491 3.96203 2.77204 3.61131 4.15766C2.70153 4.42029 2.05522 4.607 1.97266 4.63116C1.46484 4.77956 1.44878 4.79446 1.3821 5.24025C1.33192 5.57774 0.00317383 15.1507 0.00317383 15.1507L10.357 16.9579L15.9671 15.8273C15.9671 15.8273 13.9976 3.42328 13.9853 3.33828ZM9.78045 2.37813L8.90435 2.63075C8.90466 2.57323 8.90497 2.51664 8.90497 2.45475C8.90497 1.91541 8.8246 1.48115 8.69568 1.1369C9.21357 1.19745 9.55847 1.7464 9.78045 2.37813ZM8.05324 1.24385C8.19723 1.57995 8.29085 2.06229 8.29085 2.71319C8.29085 2.74649 8.29053 2.77694 8.29022 2.80773C7.72046 2.97214 7.10134 3.15064 6.48084 3.32973C6.82924 2.07708 7.4823 1.47207 8.05324 1.24385ZM7.35763 0.630394C7.45868 0.630394 7.56048 0.662356 7.65791 0.724825C6.90755 1.05376 6.10325 1.88222 5.7636 3.53664L4.33337 3.94929C4.7312 2.68739 5.67592 0.630394 7.35763 0.630394Z" fill="white"/>
<path d="M13.8268 3.20105C13.7608 3.19593 12.3655 3.09957 12.3655 3.09957C12.3655 3.09957 11.3964 2.20329 11.29 2.10408C11.2502 2.06717 11.1965 2.04825 11.1404 2.0401L10.3575 16.9578L15.9671 15.8273C15.9671 15.8273 13.9977 3.42327 13.9853 3.33827C13.9727 3.25327 13.8928 3.20623 13.8268 3.20105Z" fill="white"/>
<path d="M8.45262 6.08886L7.76087 8.00578C7.76087 8.00578 7.15481 7.70444 6.41188 7.70444C5.32274 7.70444 5.26794 8.34118 5.26794 8.50164C5.26794 9.37714 7.71769 9.71259 7.71769 11.7633C7.71769 13.3767 6.61924 14.4157 5.13814 14.4157C3.36081 14.4157 2.4519 13.3852 2.4519 13.3852L2.92779 11.9204C2.92779 11.9204 3.86208 12.6676 4.65043 12.6676C5.16557 12.6676 5.37511 12.2898 5.37511 12.0137C5.37511 10.8717 3.36531 10.8207 3.36531 8.94416C3.36531 7.36473 4.58219 5.8363 7.03857 5.8363C7.98504 5.8363 8.45262 6.08886 8.45262 6.08886Z" fill="#64943E"/>
</g>
<defs>
<clipPath id="clip0_10_845">
<rect width="16" height="17" fill="white"/>
</clipPath>
</defs>
</svg>
