<svg width="14" height="18" viewBox="0 0 14 18" fill="none" xmlns="http://www.w3.org/2000/svg">
<path d="M9.03914 0.954408C6.08576 1.61048 4.62791 1.95103 4.52651 2.00617C4.44165 2.05061 4.36601 2.11286 4.30407 2.18924C4.2324 2.29157 4.2324 2.32114 4.21488 7.7039C4.19789 12.8206 4.19417 13.1242 4.1363 13.2635C3.94465 13.7217 3.61602 13.8496 2.5314 13.9048C1.88799 13.8651 1.24724 14.0214 0.683347 14.3556C0.458162 14.5058 0.275777 14.7193 0.156049 14.9728C0.0363223 15.2263 -0.0161558 15.5102 0.00432957 15.7934C-0.01758 16.2733 0.119568 16.7462 0.391559 17.1283C0.66355 17.5105 1.05289 17.7775 1.49084 17.8822C1.93254 17.9919 2.38778 18.0253 2.83932 17.9811C4.06782 17.8526 4.78984 17.3472 5.16625 16.3466C5.21403 16.2107 5.21933 15.7127 5.23792 11.0656C5.2549 6.32353 5.25862 5.92784 5.3133 5.82153C5.3493 5.75502 5.40287 5.70142 5.46726 5.66746C5.53893 5.63448 11.124 4.31892 12.4348 4.02556C12.705 3.96303 12.8181 3.9852 12.8966 4.11369C12.9497 4.20181 12.955 4.48379 12.955 7.73062V11.2486L12.8659 11.4539C12.7018 11.828 12.4942 11.9195 11.7058 11.9655C10.4089 12.0463 10.0601 12.1048 9.60136 12.343C9.29787 12.4781 9.05195 12.7288 8.9112 13.0469C8.80513 13.2499 8.75644 13.4816 8.77104 13.7137C8.74294 14.0126 8.7799 14.3144 8.87901 14.5955C8.97813 14.8765 9.1367 15.1291 9.34228 15.3335C9.6407 15.6194 9.99118 15.8361 10.3716 15.9699C10.7521 16.1036 11.1543 16.1515 11.5529 16.1106C12.1142 16.149 12.6711 15.9837 13.134 15.6416C13.4106 15.4254 13.6319 15.1379 13.7774 14.8059C14.0137 14.2783 13.9998 14.7911 13.9998 7.27126V0.469459L13.9245 0.307999C13.8932 0.22326 13.8404 0.149561 13.7722 0.0952155C13.7039 0.04087 13.6228 0.00803994 13.538 0.000428618C13.4435 -0.0126474 12.1019 0.272751 9.03914 0.954408Z" fill="white"/>
</svg>
