<svg width="18" height="10" viewBox="0 0 18 10" fill="none" xmlns="http://www.w3.org/2000/svg">
<path fill-rule="evenodd" clip-rule="evenodd" d="M5.25978 1.41612V3.92554H5.76215V1.24222C5.76215 0.372765 5.33899 0 4.54618 0C3.70039 0 3.25117 0.571476 3.11881 0.944078C3.11881 0.670749 2.93381 0 1.95582 0C1.26862 0 0.713447 0.372766 0.475638 0.96906V0.944241C0.528619 0.695731 0.555021 0.322965 0.555021 0.0498H1.81991e-05V3.92554H0.528618V2.08703C0.528618 1.09315 1.1102 0.397421 1.8238 0.397421C2.511 0.397421 2.61661 0.844641 2.61661 1.41612V3.92554H3.14521V2.08703C3.14521 1.01853 3.7796 0.397421 4.46662 0.397421C5.10101 0.397421 5.25978 0.795004 5.25978 1.41612ZM9.14515 3.03094C9.09217 3.27962 9.06577 3.65222 9.06577 3.92554H9.59489V0.0498H9.06594V1.91314C9.06594 2.88219 8.53734 3.60258 7.74453 3.60258C7.08356 3.60258 6.92514 3.22998 6.92514 2.58405V0.0498H6.39654V2.75778C6.39654 3.45351 6.68716 4 7.63857 4C8.35234 4 8.88094 3.62724 9.11875 3.03094H9.14515ZM10.3877 3.90073C10.6255 3.97518 10.9427 4 11.2599 4C12.3171 4 12.9515 3.45351 12.9517 2.78276C12.9517 2.0782 12.3538 1.91429 11.7978 1.76188C11.3148 1.62946 10.8635 1.50573 10.8635 1.04368C10.8635 0.646258 11.2073 0.397747 11.8417 0.397747C12.1323 0.397747 12.4231 0.447383 12.7139 0.522002L12.7399 0.0747816C12.4755 0.0249817 12.1587 0.000163189 11.9205 0.000163189C10.8897 0.000163189 10.3347 0.472202 10.3347 1.09331C10.3347 1.84746 10.9481 2.01043 11.51 2.15971C11.9848 2.28586 12.4229 2.40224 12.4229 2.85738C12.4229 3.30443 11.9733 3.57776 11.3389 3.57776C10.9957 3.57776 10.6783 3.52812 10.4141 3.45367L10.3877 3.90073ZM14.2201 0.0498H13.6915V3.92554H14.2201V0.0498ZM14.987 2.13666C14.987 3.6274 15.8854 3.97518 16.7576 3.97518C17.26 3.97518 17.7356 3.85093 18 3.75165L17.947 3.32925C17.6562 3.45367 17.2336 3.55294 16.8634 3.55294C15.8062 3.55294 15.542 2.85721 15.542 2.03739C15.542 1.04351 15.9911 0.397584 16.9428 0.397584C17.2862 0.397584 17.6298 0.472039 17.9206 0.571475L17.9736 0.149074C17.6828 0.049637 17.3392 0.0248184 16.9958 0.0248184C15.674 0.0248184 14.987 0.844803 14.987 2.13666ZM16.7338 5.25146C17.02 5.25998 17.3019 5.277 17.5794 5.34935C17.6575 5.37062 17.7312 5.39616 17.8049 5.4302C17.9046 5.46851 17.9697 5.56213 17.9827 5.66427C18 5.78343 18.0044 5.90684 17.9957 6.03026C17.9393 6.75798 17.7095 7.46017 17.3279 8.08575C17.1891 8.3113 17.02 8.51558 16.8249 8.69432C16.7859 8.73262 16.7382 8.76241 16.6861 8.77943C16.6037 8.80071 16.5517 8.75815 16.5474 8.67729C16.5517 8.63474 16.5604 8.59218 16.5777 8.54962C16.7295 8.14959 16.8769 7.75381 16.994 7.34101C17.0634 7.11546 17.1111 6.88565 17.1414 6.65159C17.1501 6.56647 17.1545 6.48136 17.1458 6.39625C17.1414 6.25155 17.046 6.12814 16.903 6.08558C16.7685 6.04302 16.6298 6.01749 16.4867 6.00898C16.0877 5.99195 15.6888 6.00898 15.2942 6.06005L14.7695 6.12388C14.7132 6.12814 14.6611 6.12388 14.6308 6.07281C14.6004 6.02174 14.6134 5.97068 14.6438 5.91961C14.6785 5.8728 14.7218 5.83024 14.7739 5.80045C15.0947 5.5749 15.4546 5.43872 15.8362 5.34935C16.1311 5.28977 16.4303 5.25998 16.7338 5.25146ZM9.27989 9.40068C9.10644 9.39643 8.93299 9.39643 8.75954 9.40068C8.68004 9.39643 8.60054 9.39264 8.52105 9.38886C8.36205 9.3813 8.20306 9.37373 8.04406 9.36238C7.41097 9.31557 6.78222 9.22194 6.16647 9.08151C4.03739 8.59636 2.16847 7.62181 0.538051 6.20466C0.423715 6.10527 0.314301 6.00347 0.204247 5.90107L0.204213 5.90104C0.168194 5.86753 0.132107 5.83395 0.0957555 5.80037C0.0610656 5.77058 0.0307123 5.72802 0.0133674 5.68547C-0.01265 5.62589 0.000358603 5.56205 0.0437209 5.51524C0.0870832 5.46843 0.156463 5.4514 0.21717 5.47694L0.217181 5.47694C0.256203 5.49396 0.295226 5.51099 0.329912 5.53226C1.88662 6.47703 3.58642 7.16645 5.36861 7.57499C5.96701 7.71117 6.56974 7.81757 7.17682 7.89417C8.0484 8.00056 8.92865 8.03886 9.80457 8.00907C10.2772 7.99631 10.7455 7.95375 11.2138 7.89417C12.3066 7.75799 13.3863 7.51541 14.4313 7.17496C14.982 6.99622 15.5197 6.79195 16.0444 6.55363C16.1225 6.51107 16.2178 6.4983 16.3046 6.51958C16.4477 6.55363 16.5344 6.69832 16.4997 6.83876C16.4954 6.85578 16.4867 6.87706 16.478 6.89408C16.4433 6.95792 16.3956 7.01324 16.3349 7.0558C15.8363 7.43881 15.2986 7.77501 14.7305 8.05589C13.6595 8.58785 12.5147 8.9666 11.3353 9.18364C10.6545 9.3028 9.96935 9.37515 9.27989 9.40068Z" fill="white"/>
</svg>
