<svg width="18" height="13" viewBox="0 0 18 13" fill="none" xmlns="http://www.w3.org/2000/svg">
<path d="M3.57726 1.55247C2.76643 1.56533 1.26963 1.96382 0.586051 4.7461C0.288031 5.95825 0.173224 7.22188 0.428191 8.72575C0.663067 10.1128 1.07972 11.3102 1.36052 11.9699C1.45715 12.1973 1.60736 12.4342 1.72312 12.5805C2.05606 13 2.61096 12.9733 2.84393 12.8589C3.09794 12.7345 3.38974 12.4332 3.28402 11.7464C3.23283 11.4146 3.0855 10.9289 3.00274 10.6591C2.74825 9.83113 2.40957 8.83157 2.37991 8.11991C2.34021 7.16802 2.71716 7.04313 2.96734 6.98832C3.3883 6.89632 3.74086 7.3563 4.07619 7.93354C4.4761 8.62232 5.1616 9.84209 5.7208 10.774C6.22547 11.6153 7.15685 12.5162 8.65269 12.4542C10.1777 12.3913 11.3019 11.8117 11.8812 9.98605C12.3146 8.62041 12.6097 7.59988 13.0852 6.55503C13.632 5.35337 14.361 4.70987 14.9747 4.90674C15.5449 5.08882 15.687 5.64413 15.6937 6.46018C15.6999 7.18184 15.6162 7.97787 15.5507 8.56226C15.5268 8.77437 15.4842 9.20098 15.5019 9.43836C15.5363 9.90406 15.7387 10.3693 16.2649 10.4436C16.8255 10.5228 17.2757 10.0766 17.4551 9.53655C17.5259 9.32396 17.5866 8.99793 17.6191 8.76722C17.7837 7.60083 17.8267 6.81672 17.7526 5.62316C17.6655 4.22749 17.3914 2.9548 16.9135 1.85324C16.4562 0.799816 15.7215 0.124863 14.7791 0.0652798C13.7353 -2.28398e-05 12.5384 0.689707 11.9103 2.0277C11.3315 3.26082 10.8685 4.52731 10.5877 5.17319C10.3026 5.8286 9.884 6.23233 9.24012 6.30002C8.45273 6.38248 7.77489 5.81335 7.27787 5.00159C6.84496 4.29375 5.98629 2.9467 5.52706 2.49387C5.09606 2.06821 4.60335 1.53626 3.57726 1.55247Z" fill="white"/>
</svg>
