<svg width="19" height="7" viewBox="0 0 19 7" fill="none" xmlns="http://www.w3.org/2000/svg">
<g clip-path="url(#clip0_10_854)">
<path d="M10.6829 0.244276C10.3471 0.412931 10.2218 0.697722 10.2218 1.48463C10.2218 1.48463 10.3921 1.32707 10.6441 1.23923C10.7982 1.18382 10.9436 1.10824 11.0761 1.01466C11.3601 0.815441 11.4041 0.558722 11.4041 0.12633C11.4041 0.12633 10.9411 0.114332 10.6829 0.244049M8.1782 1.09842L7.20546 4.72508L6.39609 1.7572C6.31736 1.44162 6.17525 1.05156 5.95039 0.787596C5.66405 0.451417 5.08192 0.430363 5.02021 0.430363C4.95802 0.430363 4.37589 0.451417 4.08978 0.787596C3.86492 1.05156 3.72282 1.44184 3.64384 1.7572L2.83472 4.72553L1.86197 1.09842C1.86197 1.09842 1.77591 0.701117 1.48224 0.451869C1.00556 0.047775 0.291016 0.134027 0.291016 0.134027L2.15422 6.91217C2.15422 6.91217 2.76899 6.95518 3.07637 6.80396C3.48022 6.60587 3.67245 6.45306 3.91718 5.53078C4.13518 4.70856 4.74451 2.2935 4.80126 2.12145C4.82963 2.03655 4.8651 1.83349 5.02021 1.83349C5.17863 1.83349 5.21126 2.03655 5.23868 2.12145C5.29472 2.29372 5.90476 4.70856 6.123 5.53078C6.36749 6.45306 6.55995 6.60587 6.96381 6.80396C7.27119 6.95496 7.88595 6.91217 7.88595 6.91217L9.74892 0.134253C9.74892 0.134253 9.03462 0.047775 8.55794 0.451869C8.26403 0.700891 8.1782 1.09842 8.1782 1.09842ZM11.4033 1.25825C11.4033 1.25825 11.2946 1.43098 11.047 1.57337C10.8877 1.66506 10.7349 1.72686 10.5711 1.80768C10.2963 1.94306 10.2218 2.09405 10.2218 2.32429V6.90719C10.2218 6.90719 10.6602 6.96401 10.947 6.81392C11.3159 6.62059 11.4007 6.43405 11.4041 5.59439V1.50274H11.4033V1.25825ZM16.2947 3.52366L18.7089 0.162551C18.7089 0.162551 17.6903 0.00023447 17.1857 0.430136C16.8629 0.705192 16.5016 1.19984 16.5016 1.19984L15.6135 2.39854C15.5705 2.46079 15.5138 2.52871 15.4239 2.52871C15.3341 2.52871 15.2773 2.46079 15.2345 2.39854L14.3459 1.19984C14.3459 1.19984 13.9851 0.705192 13.6621 0.430136C13.1578 8.10623e-06 12.1387 0.162551 12.1387 0.162551L14.5528 3.52366L12.1448 6.87414C12.1448 6.87414 13.2063 6.99978 13.7108 6.56988C14.0336 6.2946 14.3459 5.84772 14.3459 5.84772L15.2345 4.64902C15.2771 4.58676 15.3338 4.51885 15.4239 4.51885C15.5138 4.51885 15.5705 4.58676 15.6135 4.64902L16.5016 5.84749C16.5016 5.84749 16.8327 6.2946 17.1554 6.56988C17.66 7.00001 18.7025 6.87436 18.7025 6.87436L16.2947 3.52389V3.52366Z" fill="white"/>
</g>
<defs>
<clipPath id="clip0_10_854">
<rect width="19" height="7" fill="white"/>
</clipPath>
</defs>
</svg>
