<svg width="19" height="19" viewBox="0 0 19 19" fill="none" xmlns="http://www.w3.org/2000/svg">
<path d="M4.31307 18.0883V5.88342H0.240076V18.0883H4.31349H4.31307ZM2.27742 4.21735C3.69746 4.21735 4.58153 3.28016 4.58153 2.10894C4.55495 0.911031 3.69746 0 2.30443 0C0.910437 0 0 0.911031 0 2.10883C0 3.28005 0.88375 4.21724 2.25074 4.21724H2.2771L2.27742 4.21735ZM6.56753 18.0883H10.6402V11.2733C10.6402 10.909 10.6668 10.5437 10.7744 10.2835C11.0687 9.55445 11.7388 8.79972 12.8642 8.79972C14.3377 8.79972 14.9274 9.91884 14.9274 11.5597V18.0883H19V11.0904C19 7.34173 16.9909 5.59729 14.3113 5.59729C12.1144 5.59729 11.1495 6.82029 10.6134 7.65328H10.6405V5.88385H6.56774C6.6209 7.0288 6.56742 18.0887 6.56742 18.0887L6.56753 18.0883Z" fill="white"/>
</svg>
