<svg enable-background="new 0 0 100 100" viewBox="0 0 100 100" xmlns="http://www.w3.org/2000/svg"><g id="Layer_1"/><g id="Layer_2"><g><path d="m90.479 2.513c-14.611-.041-68.502.028-80.958 0-3.876 0-7.021 3.049-7.021 6.804v81.381c0 3.756 3.145 6.802 7.021 6.802h80.958c3.878 0 7.021-3.046 7.021-6.803v-81.38c0-3.755-3.143-6.804-7.021-6.804z" fill="#0077b5"/><g fill="#f1f1f1"><path d="m53.453 82.005s0-23.878 0-23.879c-.139-4.388 2.484-8.483 7.762-8.667 5.143 0 7.201 3.921 7.201 9.67v22.875h14.214v-24.519c0-13.135-7.012-19.247-16.365-19.247-7.668 0-11.036 4.285-12.907 7.204l.095-6.2h-14.214c.185 4.012-.001 42.763-.001 42.763z"/><path d="m31.37 63.461v-24.22h-14.216v42.763h14.217c-.003-4.49.005-14.116-.001-18.543z"/><path d="m24.265 33.404c4.956 0 8.042-3.284 8.042-7.387-.041-9.897-16.004-9.787-15.991-.001-.011 4.135 3.16 7.439 7.949 7.388z"/></g></g></g></svg>