<svg width="18" height="6" viewBox="0 0 18 6" fill="none" xmlns="http://www.w3.org/2000/svg">
<path d="M17.9997 1.87074H16.5664V4.28917C16.5664 4.39838 16.5249 4.49117 16.4583 4.56713C16.3914 4.63467 16.2997 4.66833 16.1918 4.67654H15.3587C15.242 4.66813 15.1503 4.63446 15.0836 4.56713C15.0168 4.49138 14.9753 4.3988 14.9753 4.28917V1.87074H13.5422V4.41563C13.5506 4.75291 13.6089 5.04749 13.7507 5.28336C13.8921 5.51943 14.0754 5.69639 14.317 5.81422C14.5672 5.93205 14.8504 5.99979 15.175 5.99979H16.5668V5.98296C16.8668 5.98296 17.1249 5.91563 17.3416 5.78917C17.5518 5.6553 17.7197 5.46211 17.8251 5.23286C17.9414 4.99699 17.9997 4.71863 17.9997 4.41542V1.87074ZM3.65894 2.02244C3.40889 1.91303 3.13398 1.86232 2.834 1.87074H1.909L1.55067 1.91303C1.46726 1.93828 1.42555 1.95511 1.42555 1.95511V0H0.000854492V6H1.42575V3.57294C1.43417 3.47174 1.46746 3.37074 1.54245 3.30341C1.61745 3.23608 1.70086 3.19399 1.81737 3.19399H2.65073C2.75079 3.19399 2.84242 3.23649 2.91742 3.30341C2.99241 3.37095 3.0257 3.47194 3.03412 3.57294V6H4.45902V3.38757C4.45902 3.02504 4.38402 2.73026 4.24245 2.5026C4.09227 2.28356 3.90057 2.12365 3.65894 2.02244ZM8.50852 4.28938C8.5001 4.39859 8.46681 4.49117 8.40024 4.56733C8.32524 4.63467 8.23361 4.66833 8.12532 4.67654H7.29196C7.18368 4.66813 7.09204 4.63446 7.02527 4.56733C6.95028 4.49138 6.91699 4.3988 6.90857 4.28938V1.87074H5.48367V4.41563C5.48367 4.75291 5.55045 5.04749 5.68379 5.28336C5.81714 5.51943 6.00864 5.69639 6.25046 5.81422C6.50051 5.93205 6.77542 5.99979 7.10869 5.99979H8.50852V5.98296C8.8085 5.98296 9.06697 5.91563 9.27531 5.78917C9.48579 5.65329 9.65579 5.46086 9.76678 5.23286C9.87506 4.99699 9.93361 4.71863 9.94184 4.41542V1.87074H8.50852V4.28938ZM11.025 6H12.4499V0H11.025V6Z" fill="white"/>
</svg>
