<svg width="18" height="11" viewBox="0 0 18 11" fill="none" xmlns="http://www.w3.org/2000/svg">
<path d="M5.738 0.750136C7.85694 -0.293427 10.4244 -0.23174 12.5264 0.832773C13.9804 1.55486 15.2028 2.76044 15.984 4.23186C15.4976 4.48839 15.0092 4.73909 14.522 4.9919C13.7463 3.52886 12.5017 2.34912 11.0283 1.69453C9.08711 0.808098 6.7693 0.83417 4.87305 1.83979C3.81258 2.37403 2.93293 3.22252 2.20605 4.17995C3.01778 2.69899 4.25106 1.46641 5.738 0.750136Z" fill="white"/>
<path d="M4.24329 5.31579C5.27325 3.64441 7.08332 2.47701 9.01119 2.49703C10.9491 2.47328 12.791 3.65302 13.77 5.3805C13.286 5.6326 12.7999 5.88168 12.316 6.13471C11.4374 4.61022 9.81712 3.56433 8.10081 3.55013C6.6357 3.48844 5.24608 4.23544 4.24329 5.31579Z" fill="white"/>
<path d="M0 4.42088C2.99837 5.99263 5.99918 7.55856 9 9.12588C11.9995 7.55879 15.0003 5.99286 18 4.42321C17.9978 4.8648 17.9973 5.30639 17.9987 5.74798C14.9978 7.31427 11.9978 8.8823 8.99866 10.452C6.00002 8.8829 3.00083 7.31488 0.00111329 5.74798C0.00111329 5.30499 0.00111348 4.86294 0 4.42088Z" fill="white"/>
<path d="M6.43579 6.46078C6.98852 5.66304 7.79245 4.97284 8.7703 4.91138C9.9134 4.78731 10.9866 5.52011 11.5687 6.51176C11.0861 6.76713 10.5997 7.01644 10.1169 7.27063C9.66598 6.55553 8.95024 5.97287 8.1089 5.92189C7.50206 5.84857 6.93307 6.12884 6.43579 6.46078Z" fill="white"/>
</svg>
