<svg width="20" height="19" viewBox="0 0 20 19" fill="none" xmlns="http://www.w3.org/2000/svg">
<path d="M3.48379 2.45122V8.62805C3.48379 8.62805 2.18596 11.05 0.963452 12.9274C0.963452 12.9274 0.606043 14.9739 4.81928 13.5094C4.81928 13.5094 5.83502 14.79 6.83175 15.1916C6.83175 15.1916 6.19225 16.0628 7.01987 16.5133H9.10766C9.10766 16.5133 9.52138 16.2879 9.55904 15.9688H9.89762V2.20706C9.89762 2.20706 7.69703 2.00049 6.90707 1.43733C6.11711 0.874171 4.98857 1.04298 4.42439 1.53113C3.86021 2.01928 3.65326 2.30086 3.48397 2.45105L3.48379 2.45122Z" fill="white"/>
<path d="M16.1263 2.45122V8.62805C16.1263 8.62805 17.3866 11.05 18.5738 12.9274C18.5738 12.9274 18.9209 14.9739 14.8293 13.5094C14.8293 13.5094 13.8431 14.79 12.8749 15.1916C12.8749 15.1916 13.496 16.0628 12.6923 16.5133H10.6649C10.6649 16.5133 10.2631 16.2879 10.2265 15.9688H9.89771V2.20706C9.89771 2.20706 12.0347 2.00049 12.8019 1.43733C13.5691 0.874171 14.665 1.04298 15.213 1.53113C15.761 2.01928 15.9619 2.30086 16.1263 2.45105V2.45122Z" fill="white"/>
<path d="M6.79843 8.67805C7.83955 8.67805 8.68354 7.64323 8.68354 6.36673C8.68354 5.09022 7.83955 4.05541 6.79843 4.05541C5.75732 4.05541 4.91333 5.09022 4.91333 6.36673C4.91333 7.64323 5.75732 8.67805 6.79843 8.67805Z" fill="#5ACC05"/>
<path d="M12.8045 8.67805C13.8457 8.67805 14.6896 7.64323 14.6896 6.36673C14.6896 5.09022 13.8457 4.05541 12.8045 4.05541C11.7634 4.05541 10.9194 5.09022 10.9194 6.36673C10.9194 7.64323 11.7634 8.67805 12.8045 8.67805Z" fill="#5ACC05"/>
<path d="M6.95084 7.67462C7.49789 7.67462 7.94136 7.075 7.94136 6.33534C7.94136 5.59568 7.49789 4.99607 6.95084 4.99607C6.4038 4.99607 5.96033 5.59568 5.96033 6.33534C5.96033 7.075 6.4038 7.67462 6.95084 7.67462Z" fill="white"/>
<path d="M6.34277 6.02256C6.60246 6.02256 6.81298 5.81242 6.81298 5.5532C6.81298 5.29398 6.60246 5.08384 6.34277 5.08384C6.08308 5.08384 5.87256 5.29398 5.87256 5.5532C5.87256 5.81242 6.08308 6.02256 6.34277 6.02256Z" fill="#5ACC05"/>
<path d="M12.7544 7.67462C13.3015 7.67462 13.7449 7.075 13.7449 6.33534C13.7449 5.59568 13.3015 4.99607 12.7544 4.99607C12.2074 4.99607 11.7639 5.59568 11.7639 6.33534C11.7639 7.075 12.2074 7.67462 12.7544 7.67462Z" fill="white"/>
<path d="M12.1462 6.02256C12.4059 6.02256 12.6164 5.81242 12.6164 5.5532C12.6164 5.29398 12.4059 5.08384 12.1462 5.08384C11.8865 5.08384 11.676 5.29398 11.676 5.5532C11.676 5.81242 11.8865 6.02256 12.1462 6.02256Z" fill="#5ACC05"/>
<mask id="mask0_10_971" style="mask-type:luminance" maskUnits="userSpaceOnUse" x="7" y="11" width="3" height="2">
<path d="M9.63016 11.682H7.42957V12.7271H9.63016V11.682Z" fill="white"/>
</mask>
<g mask="url(#mask0_10_971)">
<path d="M8.49544 12.6019C9.00442 12.6019 9.41703 12.19 9.41703 11.682C9.41703 11.1739 9.00442 10.7621 8.49544 10.7621C7.98646 10.7621 7.57385 11.1739 7.57385 11.682C7.57385 12.19 7.98646 12.6019 8.49544 12.6019Z" fill="#5ACC05"/>
</g>
<mask id="mask1_10_971" style="mask-type:luminance" maskUnits="userSpaceOnUse" x="10" y="11" width="3" height="2">
<path d="M12.5486 11.682H10.348V12.7271H12.5486V11.682Z" fill="white"/>
</mask>
<g mask="url(#mask1_10_971)">
<path d="M11.4139 12.6019C11.9229 12.6019 12.3355 12.19 12.3355 11.682C12.3355 11.1739 11.9229 10.7621 11.4139 10.7621C10.9049 10.7621 10.4923 11.1739 10.4923 11.682C10.4923 12.19 10.9049 12.6019 11.4139 12.6019Z" fill="#5ACC05"/>
</g>
<mask id="mask2_10_971" style="mask-type:luminance" maskUnits="userSpaceOnUse" x="8" y="12" width="3" height="3">
<path d="M10.998 12.993H8.79736V14.0382H10.998V12.993Z" fill="white"/>
</mask>
<g mask="url(#mask2_10_971)">
<path d="M9.86324 13.913C10.3722 13.913 10.7848 13.5011 10.7848 12.993C10.7848 12.485 10.3722 12.0731 9.86324 12.0731C9.35426 12.0731 8.94165 12.485 8.94165 12.993C8.94165 13.5011 9.35426 13.913 9.86324 13.913Z" fill="#5ACC05"/>
</g>
</svg>
