<svg width="18" height="18" viewBox="0 0 18 18" fill="none" xmlns="http://www.w3.org/2000/svg">
<g clip-path="url(#clip0_10_912)">
<path d="M9 0C7.21997 0 5.47991 0.527841 3.99987 1.51677C2.51983 2.50571 1.36628 3.91131 0.685088 5.55585C0.00389954 7.20038 -0.17433 9.00998 0.172936 10.7558C0.520203 12.5016 1.37737 14.1053 2.63604 15.364C3.89471 16.6226 5.49836 17.4798 7.24419 17.8271C8.99002 18.1743 10.7996 17.9961 12.4442 17.3149C14.0887 16.6337 15.4943 15.4802 16.4832 14.0001C17.4722 12.5201 18 10.78 18 9C17.9971 6.61393 17.048 4.3264 15.3608 2.6392C13.6736 0.951987 11.3861 0.00285814 9 0ZM17.64 9C17.64 9.29577 17.625 9.59135 17.595 9.8856L16.0668 9.7056C16.0884 9.477 16.101 9.243 16.101 9.009C16.101 8.775 16.0902 8.568 16.0686 8.3502L17.5968 8.1702C17.64 8.4366 17.64 8.7156 17.64 9ZM0.360004 9C0.359842 8.70906 0.37426 8.41829 0.403204 8.1288L1.9314 8.3088C1.9098 8.5338 1.8972 8.7624 1.8972 8.9928C1.8972 9.2232 1.9098 9.4518 1.9314 9.6768L0.403204 9.8568C0.374404 9.5784 0.360004 9.2928 0.360004 9ZM15.714 6.6726L17.154 6.1326C17.3457 6.67669 17.482 7.23874 17.5608 7.8102L16.0326 7.9902C15.969 7.54178 15.8623 7.10054 15.714 6.6726ZM15.7554 9C15.7552 9.44118 15.7118 9.88128 15.6258 10.314L14.112 9.9648C14.2382 9.31447 14.2382 8.64593 14.112 7.9956L15.6276 7.6536C15.7151 8.097 15.7579 8.54805 15.7554 9ZM9 13.8492C8.04092 13.8492 7.10338 13.5648 6.30593 13.032C5.50848 12.4991 4.88695 11.7418 4.51993 10.8557C4.1529 9.96963 4.05687 8.99462 4.24398 8.05397C4.43109 7.11331 4.89293 6.24927 5.5711 5.5711C6.24927 4.89292 7.11332 4.43108 8.05397 4.24398C8.99462 4.05687 9.96964 4.1529 10.8557 4.51992C11.7418 4.88695 12.4991 5.50848 13.032 6.30593C13.5648 7.10337 13.8492 8.04092 13.8492 9C13.8463 10.2852 13.3345 11.517 12.4258 12.4257C11.517 13.3345 10.2852 13.8463 9 13.8492ZM9.1638 15.75V14.1966C9.83063 14.1758 10.4871 14.026 11.097 13.7556L11.7684 15.156C10.9489 15.5272 10.0632 15.7298 9.1638 15.7518V15.75ZM6.2082 15.1488L6.8832 13.7502C7.4937 14.0236 8.15147 14.1758 8.82 14.1984V15.75C7.91783 15.7273 7.0295 15.5228 6.2082 15.1488ZM2.2446 9C2.24418 8.54047 2.29062 8.0821 2.3832 7.632L3.897 7.9794C3.76676 8.62894 3.76248 9.29745 3.8844 9.9486L2.3688 10.2924C2.28603 9.86658 2.24444 9.43379 2.2446 9ZM8.82 2.25V3.8034C8.1629 3.82479 7.51592 3.97142 6.9138 4.2354L6.2406 2.8368C7.05293 2.47194 7.92978 2.27246 8.82 2.25ZM11.7774 2.844L11.0988 4.2408C10.4933 3.97277 9.84184 3.82367 9.18 3.8016V2.25C10.0768 2.27234 10.96 2.47433 11.7774 2.844ZM15.5916 6.3432C15.4217 5.92331 15.2119 5.52068 14.9652 5.1408L16.2252 4.2696C16.5422 4.75218 16.8099 5.26535 17.0244 5.8014L15.5916 6.3432ZM15.543 7.3116L14.0256 7.6536C13.8548 7.01647 13.564 6.41778 13.1688 5.8896L14.3856 4.9266C14.925 5.6372 15.3178 6.4479 15.5412 7.3116H15.543ZM12.9456 5.6142C12.5169 5.11483 11.9978 4.70079 11.4156 4.3938L12.0942 2.997C12.8851 3.40639 13.5878 3.96722 14.1624 4.6476L12.9456 5.6142ZM12.4938 2.8134L13.2138 1.4526C13.7178 1.73524 14.1924 2.06749 14.6304 2.4444L13.6062 3.6C13.2613 3.30294 12.8888 3.03955 12.4938 2.8134ZM12.1824 2.6478C11.7791 2.44403 11.3572 2.27948 10.9224 2.1564L11.295 0.6624C11.8547 0.815314 12.3975 1.02458 12.915 1.287L12.1824 2.6478ZM10.5714 2.07C10.1212 1.96545 9.66178 1.90516 9.1998 1.89V0.36C9.78704 0.372451 10.3715 0.444826 10.944 0.576L10.5714 2.07ZM8.847 1.89C8.39177 1.89927 7.93848 1.95231 7.4934 2.0484L7.1334 0.5544C7.69728 0.432493 8.27195 0.367368 8.8488 0.36L8.847 1.89ZM7.1496 2.1312C6.70907 2.24971 6.28106 2.41066 5.8716 2.6118L5.1588 1.26C5.67672 1.00128 6.21948 0.795636 6.7788 0.6462L7.1496 2.1312ZM5.5602 2.7756C5.16133 2.99705 4.7846 3.25623 4.4352 3.5496L3.42 2.4048C3.86224 2.02906 4.34103 1.69861 4.8492 1.4184L5.5602 2.7756ZM5.9202 2.9808L6.5934 4.3794C6.01038 4.68441 5.49009 5.09661 5.0598 5.5944L3.8466 4.626C4.4261 3.94885 5.13312 3.39229 5.9274 2.988L5.9202 2.9808ZM3.6306 4.9068L4.8438 5.8752C4.4465 6.40173 4.15327 6.99921 3.9798 7.6356L2.4642 7.2882C2.69132 6.42494 3.08781 5.61544 3.6306 4.9068ZM2.4228 6.3L0.982804 5.76C1.20286 5.22201 1.47665 4.70761 1.8 4.2246L3.06 5.0994C2.80967 5.47829 2.5963 5.88033 2.4228 6.3ZM2.2968 6.6294C2.14428 7.05988 2.03396 7.50417 1.9674 7.956L0.441004 7.776C0.522609 7.2005 0.662529 6.63479 0.858604 6.0876L2.2968 6.6294ZM1.9674 10.0332C2.03395 10.485 2.14426 10.9293 2.2968 11.3598L0.856804 11.8998C0.661459 11.3531 0.522145 10.788 0.441004 10.2132L1.9674 10.0332ZM2.421 11.691C2.59465 12.1132 2.80864 12.5177 3.06 12.8988L1.8 13.7718C1.47686 13.2899 1.20308 12.7767 0.982804 12.24L2.421 11.691ZM2.4444 10.6362L3.96 10.2924C4.12568 10.9358 4.4135 11.5414 4.8078 12.0762L3.6 13.0428C3.05865 12.3256 2.66634 11.5074 2.4462 10.6362H2.4444ZM5.0238 12.3534C5.45309 12.862 5.97541 13.2842 6.5628 13.5972L5.8896 14.994C5.0928 14.5789 4.38618 14.0099 3.8106 13.32L5.0238 12.3534ZM5.553 15.2154L4.833 16.578C4.33046 16.2969 3.85712 15.9664 3.42 15.5916L4.4406 14.4414C4.78715 14.7343 5.16085 14.9935 5.5566 15.2154H5.553ZM5.8662 15.3792C6.27451 15.5801 6.7013 15.7411 7.1406 15.8598L6.7698 17.3538C6.21048 17.2044 5.66772 16.9987 5.1498 16.74L5.8662 15.3792ZM7.4862 15.9444C7.93063 16.041 8.38331 16.0946 8.838 16.1046V17.64C8.25958 17.6293 7.68369 17.5606 7.119 17.4348L7.4862 15.9444ZM9.1908 16.1028C9.64507 16.091 10.0971 16.0355 10.5408 15.9372L10.9008 17.4312C10.3357 17.5583 9.75915 17.6283 9.18 17.64L9.1908 16.1028ZM10.8828 15.8526C11.3204 15.7324 11.7454 15.5702 12.1518 15.3684L12.8718 16.731C12.354 16.9909 11.8113 17.1978 11.2518 17.3484L10.8828 15.8526ZM12.4632 15.2028C12.8589 14.9814 13.2326 14.7229 13.5792 14.4306L14.5962 15.5844C14.1569 15.9558 13.6818 16.2826 13.1778 16.56L12.4632 15.2028ZM12.087 15.003L11.4156 13.6026C12.0043 13.2923 12.5285 12.8726 12.96 12.366L14.1714 13.3362C13.5943 14.0246 12.8864 14.5917 12.0888 15.0048L12.087 15.003ZM14.4 13.0608L13.1886 12.0906C13.5837 11.5572 13.8728 10.9528 14.04 10.3104L15.5538 10.6596C15.333 11.5289 14.9407 12.3452 14.4 13.0608ZM15.5772 11.7L17.0172 12.24C16.7967 12.7755 16.5229 13.2875 16.2 13.7682L14.94 12.8916C15.1898 12.5156 15.4032 12.1166 15.5772 11.7ZM15.7032 11.3706C15.8545 10.9436 15.9642 10.5029 16.0308 10.0548L17.5572 10.2348C17.4753 10.806 17.336 11.3674 17.1414 11.9106L15.7032 11.3706ZM16.0326 3.9906L14.7726 4.8618C14.5057 4.49381 14.2043 4.15207 13.8726 3.8412L14.895 2.6928C15.3156 3.08272 15.6966 3.51321 16.0326 3.978V3.9906ZM3.1518 2.637L4.1724 3.789C3.84071 4.09988 3.53935 4.44162 3.2724 4.8096L2.0124 3.9348C2.34831 3.46555 2.72998 3.03082 3.1518 2.637ZM1.9944 14.0616L3.2544 13.1886C3.52144 13.5559 3.8228 13.8971 4.1544 14.2074L3.132 15.3576C2.7109 14.9643 2.32984 14.5301 1.9944 14.0616ZM14.8608 15.3504L13.842 14.1966C14.1734 13.8874 14.4748 13.5475 14.742 13.1814L16.002 14.058C15.6658 14.5254 15.2841 14.9583 14.8626 15.3504H14.8608Z" fill="white"/>
</g>
<defs>
<clipPath id="clip0_10_912">
<rect width="18" height="18" fill="white"/>
</clipPath>
</defs>
</svg>
