<svg width="18" height="14" viewBox="0 0 18 14" fill="none" xmlns="http://www.w3.org/2000/svg">
<path d="M2.13444 2.856C2.14547 2.74926 2.13068 2.64147 2.09127 2.54137C2.05186 2.44127 1.98893 2.35168 1.90759 2.27985L0.226718 0.296154V0H5.44534L9.47886 8.66667L13.0253 0H18V0.296289L16.563 1.64608C16.5022 1.69147 16.4552 1.75225 16.4271 1.82187C16.399 1.89149 16.3908 1.96732 16.4034 2.04117V11.9588C16.3908 12.0327 16.399 12.1085 16.4271 12.1781C16.4552 12.2477 16.5022 12.3085 16.563 12.3539L17.9663 13.7037V14H10.9076V13.7037L12.3613 12.3209C12.5042 12.1809 12.5042 12.1399 12.5042 11.926V3.9095L8.4622 13.967H7.91588L3.21005 3.9095V10.6502C3.19069 10.7901 3.20409 10.9324 3.24923 11.0665C3.29437 11.2005 3.37006 11.3227 3.47056 11.4239L5.36125 13.6707V13.967H0V13.6709L1.89069 11.4239C1.99038 11.3227 2.06439 11.1999 2.10674 11.0655C2.14908 10.9311 2.15857 10.7889 2.13444 10.6502V2.856Z" fill="white"/>
</svg>
