<svg width="18" height="16" viewBox="0 0 18 16" fill="none" xmlns="http://www.w3.org/2000/svg">
<g clip-path="url(#clip0_10_829)">
<path fill-rule="evenodd" clip-rule="evenodd" d="M3.6574 5.74902L8.98124 15.9816L0.0328369 5.74902H3.6574Z" fill="white"/>
<path fill-rule="evenodd" clip-rule="evenodd" d="M14.3066 5.74902L8.98275 15.9816L17.9312 5.74902H14.3066Z" fill="white"/>
<path fill-rule="evenodd" clip-rule="evenodd" d="M3.65723 5.74902H14.3049L8.98107 15.9816L3.65723 5.74902Z" fill="white"/>
<path fill-rule="evenodd" clip-rule="evenodd" d="M8.98107 0.078125L3.93744 0.60166L3.65723 5.74901L8.98107 0.078125Z" fill="white"/>
<path fill-rule="evenodd" clip-rule="evenodd" d="M8.98109 0.078125L14.0247 0.60166L14.3049 5.74901L8.98109 0.078125Z" fill="white"/>
<path fill-rule="evenodd" clip-rule="evenodd" d="M17.9312 5.74903L14.0264 0.601685L14.3066 5.74903H17.9312Z" fill="white"/>
<path fill-rule="evenodd" clip-rule="evenodd" d="M0.0328369 5.74903L3.93762 0.601685L3.6574 5.74903H0.0328369Z" fill="white"/>
<path fill-rule="evenodd" clip-rule="evenodd" d="M8.98107 0.078125L3.65723 5.74901H14.3049L8.98107 0.078125Z" fill="white"/>
</g>
<defs>
<clipPath id="clip0_10_829">
<rect width="18" height="16" fill="white"/>
</clipPath>
</defs>
</svg>
