<svg width="18" height="18" viewBox="0 0 18 18" fill="none" xmlns="http://www.w3.org/2000/svg">
<path d="M2.68567 2.58792L2.67715 2.59549C1.82795 3.43149 1.15384 4.42923 0.694183 5.52861C0.234529 6.628 -0.0014567 7.80793 8.35364e-06 8.99952C-0.00268063 10.9694 0.643875 12.8852 1.83966 14.4507C1.85196 14.4659 1.87089 14.4744 1.88792 14.4659C1.90401 14.4564 1.90495 14.4365 1.89833 14.4195C1.21225 12.2981 4.71931 7.15628 6.53152 5.00079C6.5372 4.99322 6.54477 4.9847 6.54477 4.97429C6.54477 4.96199 6.53625 4.95253 6.52773 4.94496C3.47963 1.91137 2.6658 2.60495 2.67715 2.59549M15.3153 2.58792L15.3238 2.59549C16.1729 3.4315 16.8469 4.42927 17.3064 5.52866C17.7659 6.62806 18.0017 7.80798 18 8.99952C18.0027 10.9694 17.3561 12.8852 16.1603 14.4507C16.149 14.4659 16.1291 14.4744 16.1121 14.4659C16.0969 14.4564 16.096 14.4365 16.1017 14.4195C16.7878 12.2981 13.2835 7.1525 11.4723 4.99606C11.4656 4.98849 11.459 4.97997 11.459 4.97051C11.459 4.95726 11.4666 4.9478 11.476 4.94023C14.5251 1.90664 15.3333 2.60495 15.3228 2.59549M9.00047 0C10.8165 0 12.3107 0.497713 13.6885 1.31714C13.7056 1.32566 13.7103 1.34458 13.7037 1.36161C13.6971 1.3777 13.6781 1.38148 13.6602 1.37675C11.918 1.00016 9.26923 2.5056 9.0194 2.65605C9.01372 2.65983 9.00804 2.66362 9.00047 2.66362C8.99195 2.66362 8.98628 2.65983 8.9806 2.65605C8.31628 2.27472 5.86815 0.991641 4.32659 1.38622C4.30956 1.39 4.29063 1.38716 4.28306 1.37013C4.27983 1.36213 4.27958 1.35324 4.28236 1.34508C4.28514 1.33692 4.29076 1.33002 4.2982 1.32566C5.67604 0.497713 7.18921 0 9.00047 0ZM9.00047 7.21779C9.01088 7.21779 9.02224 7.2263 9.02886 7.23198C11.7221 9.2796 16.3316 14.3419 14.9244 15.7735L14.9263 15.7716L14.9254 15.7735H14.9244C13.2863 17.2113 11.1793 18.0028 8.99953 18C6.81955 18.0026 4.71327 17.2111 3.07461 15.7735C1.67027 14.3419 6.27885 9.2796 8.96924 7.23198C8.97681 7.2263 8.98912 7.21779 9.00047 7.21779Z" fill="white"/>
</svg>
