<svg width="17" height="7" viewBox="0 0 17 7" fill="none" xmlns="http://www.w3.org/2000/svg">
<path d="M8.91452 4.25695C9.25923 3.96099 9.53906 3.68221 9.9081 3.53026C10.1244 3.44174 10.3637 3.31622 10.5691 3.51045C10.7746 3.70467 10.6448 3.91739 10.5827 4.12615C10.4583 4.54498 10.3326 4.96514 10.219 5.38661C10.1852 5.50949 10.1285 5.65086 10.2569 5.76053C10.3853 5.87019 10.5462 5.79752 10.6732 5.7341C11.1437 5.49892 11.5262 5.22014 11.4668 4.60179C11.4316 4.23184 11.4668 3.83811 11.8169 3.57386C11.9521 3.46949 12.1156 3.34793 12.2873 3.4642C12.459 3.58047 12.336 3.72845 12.2873 3.86058C12.1212 4.35885 12.075 4.88784 12.1521 5.40643C12.1697 5.5227 12.1521 5.6905 12.2616 5.73278C12.4117 5.78827 12.4793 5.60065 12.5752 5.52402C12.6712 5.44739 12.7361 5.33905 12.8199 5.2492C13.0416 5.0127 13.1633 4.82376 12.8686 4.50006C12.5266 4.12615 12.6293 3.39418 12.9659 3.04669C13.0584 2.93803 13.1833 2.86045 13.3233 2.8249C13.4632 2.78934 13.611 2.7976 13.7459 2.8485C14.0393 2.95288 14.1352 3.19995 14.1433 3.48931C14.1515 3.81433 14.0082 4.09972 13.896 4.41418C14.2231 4.49477 14.4259 4.31508 14.6097 4.12086C15.0531 3.6505 15.5668 3.3519 16.2481 3.42192C16.7415 3.47213 17.0241 3.73241 16.9984 4.11161C16.9887 4.19559 16.9585 4.27606 16.9104 4.34629C16.8623 4.41651 16.7977 4.47444 16.7219 4.51521C16.6462 4.55598 16.5615 4.5784 16.4751 4.58059C16.3887 4.58278 16.3029 4.56468 16.2251 4.5278C16.071 4.44721 16.09 4.37322 16.2251 4.29659C16.277 4.27463 16.3186 4.23458 16.3418 4.18425C16.3651 4.13392 16.3683 4.07693 16.3509 4.02441C16.3296 3.96156 16.2894 3.90641 16.2357 3.86613C16.1819 3.82584 16.117 3.80227 16.0494 3.79848C15.8633 3.77142 15.6735 3.81285 15.5168 3.91475C15.022 4.22392 14.7449 5.08273 14.9761 5.60594C15.1112 5.9204 15.3627 5.97985 15.6236 5.75656C15.7675 5.62174 15.8761 5.45494 15.9399 5.27034C15.9781 5.15532 16.0322 5.04595 16.1008 4.94532C16.2238 4.78545 16.3941 4.64407 16.6077 4.72995C16.8213 4.81583 16.7118 5.03252 16.6767 5.17918C16.5509 5.68786 16.4441 6.18332 16.8848 6.61141C16.8965 6.62181 16.9058 6.63446 16.9121 6.64856C16.9185 6.66267 16.9218 6.67791 16.9218 6.69332C16.9218 6.70874 16.9185 6.72398 16.9121 6.73808C16.9058 6.75219 16.8965 6.76484 16.8848 6.77524C16.8582 6.80079 16.8239 6.81738 16.787 6.8226C16.75 6.82783 16.7123 6.82142 16.6794 6.80431C16.5265 6.7519 16.3858 6.67055 16.2651 6.5649C16.1445 6.45924 16.0464 6.33137 15.9764 6.18861C15.9318 6.09348 15.9129 5.95475 15.7547 6.09084C15.6183 6.22751 15.4359 6.31145 15.2412 6.32723C15.0465 6.34301 14.8525 6.28956 14.6949 6.17672C14.311 5.93625 14.1731 5.57555 14.2082 5.1435C14.215 5.05894 14.2258 4.97703 14.2366 4.87926C13.7946 4.91493 13.435 5.01138 13.1822 5.40775C12.963 5.73528 12.6644 6.00486 12.313 6.19257C11.852 6.45682 11.6722 6.3749 11.5479 5.87944C11.5303 5.81073 11.5154 5.74731 11.4884 5.61519C11.1889 5.87727 10.8461 6.0877 10.4745 6.23749C9.77563 6.4806 9.37008 6.16747 9.47282 5.44475C9.5362 5.07357 9.64092 4.71027 9.78509 4.36133C9.81753 4.27545 9.89594 4.16975 9.78509 4.09708C9.70398 4.04687 9.61882 4.13143 9.55528 4.18428C9.12405 4.54234 8.74419 4.93871 8.61982 5.50553C8.59094 5.67266 8.54193 5.83586 8.47383 5.99174C8.43278 6.09596 8.35726 6.18378 8.25929 6.24123C8.16131 6.29869 8.0465 6.32249 7.9331 6.30884C7.68977 6.26656 7.84658 6.02345 7.77899 5.87415C7.51944 6.00628 7.27071 6.1384 7.01386 6.25335C6.82867 6.33659 6.58669 6.40265 6.45151 6.24674C6.22575 5.98249 6.073 6.07366 5.83508 6.22164C5.48766 6.43832 5.08888 6.34584 4.7739 5.98778C4.61439 5.80677 4.53193 5.81866 4.37782 5.97985C4.06578 6.2945 3.69502 6.54789 3.28555 6.72636C1.67824 7.47286 0.0979674 6.63519 0.0087475 4.90436C-0.0966942 2.95024 0.753599 1.39513 2.42444 0.310391C2.64031 0.163867 2.88672 0.0659476 3.14595 0.0236816C3.40518 -0.0185843 3.67078 -0.00414497 3.92361 0.0659604C4.22021 0.141757 4.48083 0.315558 4.66121 0.557847C4.84159 0.800136 4.9306 1.09598 4.91314 1.39513C4.89344 1.68213 4.78076 1.95554 4.59142 2.17576C4.40209 2.39597 4.14593 2.55154 3.86007 2.61993C3.7641 2.64107 3.63973 2.67806 3.58971 2.58954C3.51401 2.47063 3.63432 2.39003 3.71678 2.32529C4.16829 1.9527 4.24534 1.4678 4.16018 0.93534C4.07907 0.438552 3.71678 0.237723 3.23418 0.418733C2.88779 0.55924 2.58224 0.781171 2.34469 1.06482C1.54634 1.927 1.04719 3.01372 0.91852 4.16975C0.853458 4.66884 0.944409 5.17549 1.17942 5.62312C1.52278 6.26392 2.10542 6.54799 2.82458 6.38151C3.39365 6.24248 3.9159 5.96108 4.33997 5.56498C4.39939 5.50426 4.44579 5.43253 4.47643 5.35402C4.50708 5.27551 4.52135 5.19181 4.51841 5.10783C4.61709 4.10368 5.50524 3.35057 6.49747 3.42456C6.73682 3.43184 6.9648 3.52606 7.13688 3.68881C7.21866 3.76357 7.27468 3.86131 7.2972 3.96852C7.31972 4.07573 7.30763 4.18713 7.2626 4.28734C7.16662 4.51459 6.95303 4.58858 6.71106 4.57669C6.66045 4.58206 6.60928 4.57509 6.5621 4.55642C6.51493 4.53774 6.47321 4.50794 6.44069 4.46967C6.35147 4.33754 6.5218 4.3283 6.57588 4.26223C6.72728 4.07726 6.64211 3.85661 6.38257 3.80508C6.25414 3.7769 6.12036 3.7826 5.99493 3.8216C5.86951 3.86061 5.75695 3.93151 5.66881 4.02705C5.48501 4.20947 5.34802 4.43184 5.26908 4.67596C5.19013 4.92008 5.17146 5.17901 5.2146 5.43154C5.24163 5.62708 5.3268 5.81866 5.54714 5.87679C5.76749 5.93493 5.91078 5.77374 6.04596 5.62312C6.14604 5.49815 6.21833 5.35415 6.2582 5.20032C6.29054 5.05576 6.37086 4.9257 6.48666 4.83037C6.62184 4.72863 6.77054 4.64539 6.93005 4.73656C7.08957 4.82773 6.99224 4.98099 6.99224 5.10783C6.99224 5.34037 6.73539 5.61122 7.05307 5.78959C7.2234 5.88472 7.91012 5.37869 7.96419 5.14086C8.04936 4.76166 8.1183 4.3785 8.19535 3.99798C8.20484 3.86386 8.25681 3.73594 8.34405 3.632C8.40972 3.55881 8.49667 3.50695 8.59329 3.48334C8.68991 3.45973 8.7916 3.4655 8.88478 3.49988C9.0889 3.58311 8.98752 3.76412 8.96724 3.91739C8.95643 4.00855 8.9402 4.10104 8.91452 4.25695ZM13.481 3.377C13.4458 3.28451 13.389 3.19467 13.2728 3.20656C13.1565 3.21845 13.1227 3.32283 13.1133 3.4206C13.0984 3.56538 13.1187 3.71155 13.1724 3.84723C13.2262 3.98292 13.312 4.10428 13.4228 4.20146C13.5505 3.94431 13.5713 3.64883 13.481 3.377Z" fill="white"/>
</svg>
