<svg width="26" height="18" viewBox="0 0 26 18" fill="none" xmlns="http://www.w3.org/2000/svg">
<path d="M4.33615 0.0186584C4.32417 0.0279865 4.31519 1.82519 4.31519 4.00484V7.97236L4.79435 8.46986C5.05789 8.74348 5.27352 8.97979 5.27352 8.99845C5.27352 9.0171 5.05789 9.25341 4.79435 9.52703L4.31519 10.0245V18L12.9941 17.9938L21.67 17.9845L21.6789 14.0231L21.6849 10.0618L21.1908 9.54258C20.9183 9.25652 20.6967 9.01399 20.6967 9.00156C20.6967 8.98912 20.9183 8.74659 21.1908 8.46053L21.6849 7.94127L21.6789 3.97685L21.67 0.0124397L13.012 0.0031117C8.25033 2.35788e-06 4.34513 0.00622105 4.33615 0.0186584ZM20.6008 4.26913L20.6068 7.40957L19.9629 8.08119C19.2771 8.79634 19.2412 8.8492 19.2771 9.09173C19.2921 9.20366 19.364 9.28761 19.933 9.88461C20.3013 10.2702 20.5799 10.5873 20.5918 10.6309C20.6008 10.6744 20.6038 12.0922 20.6008 13.7868L20.5918 16.8651L12.9941 16.8744L5.39331 16.8806L5.39031 13.7962C5.38732 12.0985 5.39031 10.6806 5.39331 10.6464C5.3963 10.6122 5.69279 10.2733 6.05515 9.89705L6.71101 9.20677V8.79012L6.05216 8.09985L5.39331 7.40957V4.28468C5.39331 2.56521 5.40229 1.14735 5.41427 1.13802C5.42326 1.12559 8.8433 1.11937 13.012 1.12248L20.5918 1.1318L20.6008 4.26913Z" fill="white"/>
<path d="M8.72945 3.11873C8.67554 3.16226 8.67255 3.22756 8.66356 5.6031C8.66057 7.16399 8.66656 8.07192 8.68752 8.12478L8.71747 8.20562H9.83452C11.0654 8.20562 11.1223 8.1994 11.4787 7.99729C11.6613 7.89469 11.9429 7.58375 12.0387 7.37854C12.0746 7.29458 12.1195 7.2013 12.1345 7.17332C12.1465 7.14533 12.1884 7.01163 12.2214 6.88104C12.2753 6.66339 12.2813 6.54523 12.2813 5.64352C12.2813 4.55525 12.2663 4.41222 12.0986 4.06397C11.862 3.56026 11.5086 3.27109 10.9636 3.13428C10.7689 3.08453 10.6102 3.0752 9.76265 3.0752C8.96903 3.0752 8.77737 3.08453 8.72945 3.11873ZM10.7749 4.17591C10.9007 4.24743 10.9965 4.38735 11.0594 4.59878C11.1043 4.74492 11.1133 4.9035 11.1133 5.65907C11.1133 6.4675 11.1073 6.57011 11.0534 6.75356C11.0055 6.91524 10.9666 6.98054 10.8707 7.0676C10.727 7.19197 10.5682 7.21996 10.0951 7.20441L9.81057 7.19508L9.80158 5.64974L9.79559 4.1044L9.86148 4.09507C9.90041 4.08885 10.0981 4.09196 10.3047 4.10129C10.5832 4.11372 10.703 4.13238 10.7749 4.17591ZM14.9826 3.14361C14.9257 3.21201 14.8538 3.37681 14.7969 3.58824C14.7849 3.63799 14.755 3.73127 14.734 3.79035C14.716 3.84943 14.6831 3.94893 14.6621 4.00801C14.6412 4.06708 14.6082 4.16658 14.5902 4.22566C14.5693 4.28474 14.5423 4.37491 14.5273 4.42777C14.5124 4.47752 14.4854 4.5708 14.4645 4.62987C14.4465 4.68895 14.4135 4.78845 14.3926 4.84753C14.3716 4.90661 14.3387 5.00611 14.3207 5.06518C14.2997 5.12426 14.2728 5.21443 14.2578 5.26729C14.2309 5.3699 14.177 5.53158 14.129 5.65596C14.1141 5.69949 14.0901 5.77411 14.0781 5.82697C14.0632 5.87672 14.0362 5.97 14.0152 6.02908C13.9973 6.08816 13.9643 6.18766 13.9434 6.24673C13.9224 6.30581 13.8895 6.40531 13.8715 6.46439C13.8505 6.52347 13.8236 6.61364 13.8086 6.6665C13.7936 6.71625 13.7667 6.80953 13.7457 6.8686C13.7277 6.92768 13.6948 7.02718 13.6738 7.08626C13.6529 7.14533 13.6199 7.24483 13.602 7.30391C13.581 7.36299 13.554 7.45316 13.5391 7.50602C13.5091 7.61796 13.4552 7.77653 13.3953 7.932C13.3564 8.03772 13.3564 8.05637 13.4013 8.12789L13.4492 8.20562H14.3956L14.4465 8.09679C14.4734 8.03461 14.5094 7.932 14.5244 7.86981C14.5393 7.80763 14.5663 7.71124 14.5813 7.66149C14.5992 7.60863 14.6382 7.48425 14.6681 7.38165C14.6981 7.27904 14.734 7.18576 14.752 7.17332C14.7669 7.16088 15.1413 7.14844 15.5815 7.14844H16.3811L16.423 7.2324C16.447 7.28215 16.4949 7.42518 16.5309 7.55266C16.7345 8.26159 16.6716 8.20562 17.2676 8.20562C17.7408 8.20562 17.7617 8.20251 17.7947 8.14033C17.8276 8.07192 17.8126 7.97864 17.7168 7.70813C17.6958 7.64905 17.576 7.26349 17.4473 6.85306C17.3215 6.44262 17.1987 6.05706 17.1777 5.99799C17.0999 5.7679 17.0669 5.6684 17.043 5.57823C17.028 5.52537 17.001 5.4352 16.9801 5.37612C16.9621 5.31704 16.9292 5.21754 16.9082 5.15846C16.8872 5.09939 16.8543 4.99989 16.8363 4.94081C16.8154 4.88173 16.7884 4.78845 16.7734 4.7387C16.7585 4.68584 16.7315 4.59567 16.7105 4.53659C16.6926 4.47752 16.6596 4.37802 16.6387 4.31894C16.6177 4.25986 16.5788 4.13238 16.5518 4.0391C16.5219 3.94582 16.4799 3.81834 16.459 3.75926C16.438 3.70018 16.3901 3.55093 16.3542 3.43278C16.2464 3.06898 16.2613 3.0752 15.6055 3.0752C15.0634 3.0752 15.0454 3.07831 14.9826 3.14361ZM15.6414 4.53659C15.6654 4.61433 15.7103 4.76047 15.7402 4.86308C15.7672 4.96568 15.8091 5.1056 15.8301 5.17401C15.905 5.42898 15.9589 5.61554 16.0098 5.79588C16.0397 5.89849 16.0757 6.01353 16.0876 6.05396C16.1475 6.21875 16.1565 6.21564 15.5725 6.21564H15.0275L15.0484 6.08194C15.0604 6.01042 15.0874 5.89538 15.1083 5.82697C15.1293 5.75857 15.1712 5.61865 15.2012 5.51604C15.2281 5.41343 15.2701 5.27351 15.291 5.2051C15.309 5.1367 15.3509 4.99678 15.3779 4.89417C15.5486 4.2723 15.5546 4.26919 15.6414 4.53659ZM8.72346 9.8287C8.6995 9.85357 8.68752 10.0059 8.68752 10.3075C8.68752 10.6776 8.69651 10.7553 8.73843 10.7895C8.77737 10.8237 8.99 10.8361 9.75666 10.8423C10.2867 10.8486 10.724 10.8641 10.724 10.8765C10.724 10.8921 10.688 10.9574 10.6431 11.0227C10.4934 11.2528 10.2718 11.5793 10.0921 11.8436C9.99325 11.9897 9.85249 12.198 9.77762 12.31C9.70275 12.4219 9.56799 12.624 9.47515 12.7608C9.14872 13.2428 8.987 13.4791 8.83127 13.7092L8.67255 13.9424V14.3808C8.67255 14.7073 8.68453 14.8316 8.71448 14.8689C8.75041 14.9156 8.91213 14.9218 10.4694 14.9218C12.0896 14.9218 12.1854 14.9187 12.2304 14.8658C12.2992 14.7881 12.3052 14.0356 12.2393 13.9393C12.1974 13.8833 12.1465 13.8802 11.1612 13.8708C10.2897 13.8646 10.125 13.8553 10.125 13.818C10.125 13.7776 10.2598 13.5692 10.6341 13.0251C10.8318 12.7422 11.1283 12.3068 11.4188 11.884C11.5386 11.7067 11.7182 11.4487 11.8171 11.3087C11.9189 11.1657 12.0417 10.9823 12.0956 10.9014L12.1914 10.7522V10.32C12.1914 9.96862 12.1824 9.87845 12.1435 9.84114C12.1016 9.79761 11.9069 9.79139 10.4275 9.79139C9.16968 9.79139 8.75041 9.80072 8.72346 9.8287ZM13.7906 9.85668C13.7367 9.91887 13.7337 10.0059 13.7337 12.3566C13.7337 14.7073 13.7367 14.7943 13.7906 14.8565C13.8445 14.9156 13.8775 14.9218 14.2728 14.9218C14.6471 14.9218 14.704 14.9156 14.746 14.8658C14.7909 14.813 14.7969 14.6668 14.7969 13.42C14.7969 12.3286 14.8059 12.0301 14.8358 12.0301C14.8538 12.0301 14.8867 12.0612 14.9047 12.1016C14.9346 12.1669 15.2161 12.7266 15.5186 13.3298C15.5935 13.4791 15.7702 13.8304 15.9109 14.1134C16.0517 14.3963 16.1895 14.6637 16.2134 14.7104C16.3092 14.9032 16.3661 14.9218 16.8453 14.9218H17.2796L17.3275 14.8285C17.3664 14.7508 17.3724 14.4305 17.3724 12.3566C17.3724 10.2827 17.3664 9.9624 17.3275 9.88467L17.2796 9.79139H16.8393C16.5339 9.79139 16.3841 9.80383 16.3602 9.8287C16.3332 9.85668 16.3242 10.2174 16.3242 11.2559C16.3242 12.0208 16.3122 12.6551 16.3003 12.6644C16.2643 12.6862 16.1775 12.5556 16.0427 12.2789C15.9798 12.1514 15.866 11.9182 15.7882 11.7658C15.7103 11.6104 15.5576 11.3119 15.4497 11.0973C15.1862 10.5749 14.9796 10.1676 14.9227 10.0557C14.8957 10.0028 14.8388 9.92509 14.7999 9.87534L14.725 9.79139H14.2878C13.8775 9.79139 13.8445 9.7945 13.7906 9.85668Z" fill="white"/>
</svg>
