<svg width="21" height="12" viewBox="0 0 21 12" fill="none" xmlns="http://www.w3.org/2000/svg">
<path d="M20.0297 11.7567V11.7377C20.0491 11.7138 20.0831 11.6995 20.1123 11.7043C20.2533 11.6995 20.3894 11.6995 20.5304 11.7043C20.5596 11.7043 20.5936 11.7138 20.6131 11.7377V11.7567H20.0297Z" fill="#D1EFFF"/>
<path d="M13.4128 2.05722C13.5344 1.98565 13.6608 1.90931 13.7921 1.84251C14.1324 1.67074 14.5116 1.58485 14.8957 1.60394C15.1728 1.61825 15.4256 1.69459 15.6201 1.89499C15.8048 2.08108 15.8729 2.31011 15.8923 2.55823C15.8972 2.61071 15.8972 2.6632 15.8972 2.72045V5.19206C15.8972 5.40678 15.868 5.43541 15.6492 5.43541H15.0561C15.0172 5.43541 14.9783 5.43541 14.9394 5.43064C14.8811 5.42587 14.8325 5.37815 14.8227 5.32089C14.813 5.26841 14.813 5.21592 14.813 5.16344V2.95426C14.8179 2.8636 14.8082 2.77771 14.7839 2.69183C14.745 2.54391 14.6088 2.43894 14.4533 2.4294C14.1664 2.41031 13.8796 2.46757 13.617 2.58685C13.5781 2.5964 13.5538 2.63457 13.5587 2.67274V5.18252C13.5587 5.23024 13.5587 5.27318 13.549 5.32089C13.549 5.38769 13.4955 5.43541 13.4274 5.43541C13.3545 5.44018 13.2816 5.44018 13.2038 5.44018H12.6884C12.5086 5.44018 12.4697 5.39724 12.4697 5.22069V2.9638C12.4697 2.88268 12.4648 2.7968 12.4454 2.71568C12.4113 2.55345 12.2703 2.43894 12.105 2.4294C11.8133 2.41031 11.5168 2.46757 11.2542 2.59163C11.2153 2.60117 11.191 2.64411 11.2007 2.68228V5.22546C11.2007 5.40201 11.1619 5.44018 10.982 5.44018H10.3305C10.1603 5.44018 10.1166 5.39246 10.1166 5.23024V1.91885C10.1166 1.88068 10.1214 1.84251 10.1312 1.80434C10.1506 1.74708 10.2089 1.71368 10.2673 1.71368H10.875C10.9625 1.71368 11.016 1.76616 11.0452 1.84728C11.0695 1.91408 11.0841 1.97611 11.1084 2.04768C11.157 2.04768 11.1862 2.01428 11.2202 1.99519C11.4876 1.83297 11.7696 1.69459 12.0856 1.63734C12.3287 1.58962 12.5718 1.58962 12.8148 1.63734C13.0433 1.68505 13.2475 1.81865 13.3788 2.00951C13.3885 2.02382 13.3983 2.03337 13.408 2.04291C13.4031 2.04768 13.408 2.04768 13.4128 2.05722Z" fill="white"/>
<path d="M6.22712 2.23875C6.26115 2.22921 6.29033 2.21012 6.30977 2.1815C6.39728 2.09561 6.48966 2.01449 6.58689 1.93815C6.8397 1.74729 7.15572 1.65186 7.47173 1.67572C7.59814 1.68049 7.64189 1.71866 7.65161 1.83795C7.66134 2.00018 7.65648 2.16718 7.65648 2.32941C7.66134 2.39621 7.65648 2.45824 7.64675 2.52504C7.62731 2.61093 7.59327 2.64433 7.50576 2.65387C7.4377 2.65864 7.3745 2.65387 7.30643 2.6491C6.98069 2.62047 6.66468 2.6825 6.35839 2.7827C6.29033 2.80656 6.29033 2.85427 6.29033 2.90676V5.19705C6.29033 5.23999 6.29033 5.27816 6.28546 5.32111C6.2806 5.38314 6.23198 5.43085 6.16878 5.43085C6.13475 5.43562 6.09586 5.43562 6.06182 5.43562H5.4298C5.39576 5.43562 5.35687 5.43562 5.32284 5.43085C5.25963 5.42608 5.21102 5.37359 5.20616 5.31156C5.20129 5.27339 5.20129 5.23522 5.20129 5.19705V1.95247C5.20129 1.73298 5.2256 1.70912 5.44924 1.70912H5.91597C6.04238 1.70912 6.10072 1.75207 6.13475 1.87135C6.16878 1.99064 6.19795 2.10992 6.22712 2.23875Z" fill="white"/>
<path d="M8.12324 3.56519V1.87132C8.1281 1.75681 8.17186 1.71386 8.28854 1.70909C8.54135 1.70432 8.79416 1.70432 9.04697 1.70909C9.15879 1.70909 9.19282 1.74249 9.20255 1.85224C9.20741 1.89518 9.20741 1.93335 9.20741 1.97629V5.15408C9.20741 5.20656 9.20255 5.25905 9.19768 5.31154C9.19282 5.37356 9.1442 5.41651 9.081 5.42128C9.05183 5.42605 9.02752 5.42605 8.99835 5.42605H8.32257C8.29826 5.42605 8.27881 5.42605 8.2545 5.42128C8.18644 5.41651 8.1281 5.36402 8.12324 5.29722C8.11838 5.25905 8.11838 5.22088 8.11838 5.18271C8.12324 4.65308 8.12324 4.10913 8.12324 3.56519ZM8.6872 0.000914217C8.76499 -0.00385723 8.84278 0.0104571 8.9157 0.0343144C9.17824 0.1202 9.31437 0.344458 9.29006 0.635517C9.27061 0.883632 9.081 1.08403 8.82819 1.1222C8.72123 1.14129 8.60941 1.14129 8.50245 1.1222C8.22533 1.06972 8.02114 0.869318 8.04059 0.525773C8.06976 0.187001 8.29826 0.000914217 8.6872 0.000914217Z" fill="white"/>
<path d="M4.48177 3.17408C4.46232 2.92596 4.39426 2.68262 4.29216 2.45836C4.09283 2.04802 3.78654 1.74742 3.31981 1.64244C2.78502 1.52793 2.3037 1.64244 1.86615 1.96213C1.83698 1.99076 1.80294 2.01462 1.76405 2.0337C1.75433 2.02893 1.7446 2.02416 1.7446 2.01939C1.73002 1.97167 1.7203 1.92396 1.70571 1.87625C1.66682 1.75696 1.6182 1.71402 1.48693 1.71402C1.34108 1.71402 1.19036 1.71879 1.04451 1.71402C0.932692 1.70924 0.830596 1.72356 0.752808 1.80945C0.752808 3.47945 0.752808 5.15423 0.757669 6.81946C0.820872 6.91967 0.918107 6.93875 1.02993 6.93398C1.20495 6.92921 1.37997 6.93398 1.555 6.93398C1.86129 6.93398 1.86129 6.93398 1.86129 6.63815V5.27829C1.86129 5.24489 1.8467 5.20672 1.88073 5.17809C2.12382 5.36417 2.42039 5.47869 2.72668 5.50732C3.15451 5.55026 3.54345 5.44529 3.86919 5.159C4.10741 4.94429 4.28244 4.66754 4.37481 4.36217C4.50608 3.97091 4.5158 3.57488 4.48177 3.17408ZM3.31981 4.16177C3.28578 4.30968 3.20799 4.44328 3.09617 4.54348C2.96976 4.64846 2.81419 4.71049 2.64889 4.71049C2.40094 4.7248 2.15785 4.67231 1.93907 4.5578C1.88559 4.53394 1.85156 4.48146 1.85642 4.4242V3.56057C1.85642 3.27428 1.86129 2.98799 1.85642 2.70171C1.85156 2.63491 1.89046 2.57765 1.95366 2.55379C2.22106 2.42973 2.49817 2.37248 2.78988 2.42973C2.99407 2.45836 3.1691 2.58719 3.25175 2.77328C3.32467 2.92596 3.36843 3.09296 3.37815 3.25997C3.40732 3.56534 3.40732 3.87071 3.31981 4.16177Z" fill="white"/>
<path d="M17.6717 3.8754C18.0363 3.9422 18.4107 3.94697 18.7753 3.88971C18.9892 3.86108 19.1934 3.79905 19.383 3.69885C19.6018 3.57479 19.7622 3.40302 19.8303 3.16445C20.0005 2.56325 19.7379 1.95727 19.101 1.73302C18.7899 1.63282 18.4593 1.59942 18.1335 1.64236C17.3654 1.72824 16.8646 2.14336 16.6361 2.86385C16.4757 3.35531 16.4951 3.85631 16.6264 4.35254C16.7966 4.98714 17.2244 5.36409 17.871 5.49769C18.2405 5.5788 18.6149 5.56449 18.9844 5.50723C19.1788 5.47383 19.3733 5.42612 19.558 5.35454C19.6699 5.3116 19.7282 5.2448 19.7233 5.12074C19.7185 5.00623 19.7233 4.88694 19.7233 4.76766C19.7233 4.62451 19.665 4.58157 19.524 4.61497C19.383 4.64837 19.2469 4.677 19.1059 4.70563C18.8045 4.76766 18.4933 4.76766 18.1919 4.71517C17.7786 4.63406 17.5112 4.28574 17.5356 3.85631C17.5793 3.86108 17.6279 3.86585 17.6717 3.8754ZM17.5501 3.14536C17.5647 3.03085 17.5988 2.92111 17.6425 2.81613C17.7884 2.46782 18.0947 2.34853 18.4058 2.36762C18.4933 2.37239 18.5808 2.39148 18.6635 2.42488C18.7899 2.47736 18.8725 2.59188 18.8871 2.72548C18.9017 2.80659 18.8968 2.89248 18.8725 2.97359C18.8142 3.14536 18.6732 3.21694 18.503 3.25034C18.4009 3.27419 18.294 3.28374 18.187 3.27419C17.9974 3.27419 17.803 3.25988 17.6133 3.23125C17.5404 3.22171 17.5404 3.22171 17.5501 3.14536Z" fill="white"/>
<path d="M10.4045 12C10.2101 11.9952 10.0156 11.9952 9.82111 12C9.55372 11.9857 9.28632 11.9761 9.01892 11.957C8.30911 11.9045 7.60416 11.7996 6.91379 11.6421C4.52667 11.0982 2.43126 10.0055 0.603238 8.41662C0.433077 8.2687 0.272639 8.11602 0.10734 7.96333C0.068446 7.92993 0.034414 7.88222 0.014967 7.8345C-0.0142034 7.7677 0.000381658 7.69613 0.0489991 7.64364C0.0976166 7.59116 0.175405 7.57207 0.243469 7.6007C0.287225 7.61979 0.330981 7.63887 0.369875 7.66273C2.11524 8.72199 4.02105 9.49496 6.01922 9.95302C6.69015 10.1057 7.36593 10.225 8.04657 10.3109C9.02378 10.4302 10.0107 10.4731 10.9928 10.4397C11.5227 10.4254 12.0478 10.3777 12.5729 10.3109C13.798 10.1582 15.0086 9.88622 16.1803 9.50451C16.7977 9.30411 17.4006 9.07508 17.9888 8.80788C18.0764 8.76016 18.1833 8.74585 18.2806 8.7697C18.441 8.80788 18.5382 8.9701 18.4993 9.12756C18.4945 9.14665 18.4847 9.17051 18.475 9.18959C18.4361 9.26116 18.3826 9.32319 18.3146 9.37091C17.7555 9.80034 17.1526 10.1773 16.5157 10.4922C15.3149 11.0886 14.0314 11.5133 12.709 11.7566C11.9457 11.8902 11.1775 11.9713 10.4045 12Z" fill="white"/>
<path d="M18.7618 7.3479C19.0827 7.35744 19.3987 7.37653 19.7099 7.45764C19.7974 7.4815 19.88 7.51013 19.9627 7.5483C20.0745 7.59125 20.1474 7.69622 20.162 7.81073C20.1815 7.94433 20.1863 8.0827 20.1766 8.22108C20.1134 9.03699 19.8557 9.82428 19.4279 10.5257C19.2723 10.7786 19.0827 11.0076 18.8639 11.208C18.8202 11.2509 18.7667 11.2843 18.7084 11.3034C18.616 11.3273 18.5576 11.2796 18.5528 11.1889C18.5576 11.1412 18.5674 11.0935 18.5868 11.0458C18.757 10.5973 18.9223 10.1535 19.0535 9.69068C19.1313 9.43779 19.1848 9.18014 19.2188 8.91771C19.2286 8.82228 19.2334 8.72685 19.2237 8.63142C19.2188 8.46919 19.1119 8.33082 18.9514 8.2831C18.8007 8.23539 18.6452 8.20676 18.4847 8.19722C18.0374 8.17813 17.5902 8.19722 17.1477 8.25448L16.5595 8.32605C16.4963 8.33082 16.4379 8.32605 16.4039 8.26879C16.3699 8.21153 16.3844 8.15428 16.4185 8.09702C16.4574 8.04453 16.506 7.99682 16.5643 7.96342C16.9241 7.71053 17.3276 7.55784 17.7555 7.45764C18.0861 7.39084 18.4215 7.35744 18.7618 7.3479Z" fill="white"/>
</svg>
