<svg width="19" height="11" viewBox="0 0 19 11" fill="none" xmlns="http://www.w3.org/2000/svg">
<path d="M0 10V9H4V11H0V10Z" fill="white"/>
<path d="M5 10V9H9V11H5V10Z" fill="white"/>
<path d="M5 4V3H9V5H5V4Z" fill="white"/>
<path d="M5 7V6H9V8H5V7Z" fill="white"/>
<path d="M15 10V9H19V11H15V10Z" fill="white"/>
<path d="M15 4V3H19V5H15V4Z" fill="white"/>
<path d="M15 1V0H19V2H15V1Z" fill="white"/>
<path d="M15 7V6H19V8H15V7Z" fill="white"/>
<path d="M10 10V9H14V11H10V10Z" fill="white"/>
<path d="M10 4V3H14V5H10V4Z" fill="white"/>
<path d="M10 7V6H14V8H10V7Z" fill="white"/>
</svg>
