<svg width="17" height="8" viewBox="0 0 17 8" fill="none" xmlns="http://www.w3.org/2000/svg">
<g clip-path="url(#clip0_10_820)">
<path d="M0 6.56376C0 6.7427 0.0764797 6.878 0.229412 6.96971C0.382351 7.06141 0.545837 7.09384 0.719869 7.06701C0.883348 7.04017 0.998057 6.99096 1.064 6.91939C1.12991 6.84782 1.16288 6.72927 1.16288 6.56376V4.61789C1.16288 4.47921 1.1062 4.36178 0.992801 4.26562C0.879431 4.16943 0.740997 4.12135 0.577497 4.12135C0.419282 4.12135 0.283485 4.16943 0.170095 4.26562C0.0567053 4.36178 0 4.4792 0 4.61789V6.56376ZM1.81945 7.39579C1.81945 7.52554 1.87351 7.62281 1.98162 7.68769C2.08974 7.75256 2.22819 7.78498 2.39693 7.78498C2.57096 7.78498 2.71203 7.75254 2.82015 7.68769C2.92825 7.62283 2.98232 7.52554 2.98232 7.39579V2.8599C2.98232 2.72569 2.92561 2.6105 2.81224 2.51433C2.69885 2.41817 2.56041 2.37007 2.39693 2.37007C2.23872 2.37007 2.1029 2.41817 1.98953 2.51433C1.87614 2.61052 1.81945 2.72569 1.81945 2.8599V7.39579ZM3.63099 7.61051C3.63099 7.74024 3.68636 7.83753 3.79712 7.9024C3.90786 7.96726 4.05025 7.9997 4.22431 7.9997C4.39306 7.9997 4.53149 7.96726 4.6396 7.9024C4.74772 7.83753 4.80178 7.74024 4.80178 7.61051V3.47049C4.80178 3.33183 4.74508 3.21327 4.6317 3.11486C4.51831 3.01646 4.38252 2.96726 4.22431 2.96726C4.06081 2.96726 3.92106 3.01646 3.80504 3.11486C3.68902 3.21327 3.63101 3.33183 3.63101 3.47049V7.61051H3.63099ZM5.45044 7.63064C5.45044 7.87668 5.64557 7.9997 6.03583 7.9997C6.42608 7.9997 6.6212 7.87668 6.6212 7.63064V0.920727C6.6212 0.544969 6.48672 0.332493 6.21776 0.283282C6.04372 0.247492 5.87231 0.28999 5.70357 0.410769C5.5348 0.531547 5.45042 0.701526 5.45042 0.920722V7.63064H5.45044ZM7.30155 7.82523V0.524839C7.30155 0.292234 7.38329 0.153563 7.54678 0.108822C7.90011 0.0372544 8.25083 0.00146484 8.5989 0.00146484C9.40577 0.00146484 10.1573 0.162503 10.8534 0.48458C11.5496 0.806657 12.1125 1.24616 12.5423 1.80308C12.9722 2.36002 13.2213 2.97395 13.2899 3.64496C13.6116 3.52865 13.9544 3.4705 14.3183 3.4705C15.0566 3.4705 15.6881 3.69193 16.2129 4.13479C16.7376 4.57765 17 5.10997 17 5.73176C17 6.35802 16.7376 6.89257 16.2129 7.33543C15.6881 7.77829 15.0592 7.99971 14.3262 7.99971L7.44391 7.993C7.39643 7.97958 7.36083 7.95497 7.3371 7.91919C7.31337 7.88342 7.30155 7.85207 7.30155 7.82523Z" fill="white"/>
</g>
<defs>
<clipPath id="clip0_10_820">
<rect width="17" height="8" fill="white"/>
</clipPath>
</defs>
</svg>
