<svg width="16" height="18" viewBox="0 0 16 18" fill="none" xmlns="http://www.w3.org/2000/svg">
<path d="M13.0998 15.1512C12.4405 15.7782 11.8126 16.4366 11.1533 17.0637C10.8707 17.3772 10.494 17.628 10.0858 17.7848C8.95558 18.1924 7.91953 18.0356 7.04045 17.1891C4.93695 15.1512 2.89624 13.0819 0.824133 11.0126C-0.274711 9.91528 -0.274711 8.09683 0.824133 6.99948C2.89624 4.93021 4.93695 2.89228 7.00906 0.823008C8.1079 -0.274336 9.89745 -0.274336 11.0277 0.823008C12.4091 2.20253 13.7905 3.58204 15.1719 4.96156C16.2707 6.0589 16.2707 7.81465 15.2033 8.91199C13.9475 10.2288 12.6289 11.5143 11.3416 12.7997C11.2789 12.8624 11.2475 12.8938 11.2161 12.9565C11.0905 13.0192 11.0905 13.0819 11.2161 13.2073C11.8126 13.803 12.4091 14.3987 13.0056 14.9944C13.0684 15.0258 13.1312 15.0571 13.0998 15.1512ZM13.0998 6.99948C13.0998 6.93678 13.037 6.90542 12.9742 6.84272L9.17535 3.01769C9.08116 2.92364 9.01837 2.89228 8.92419 3.01769C6.97766 4.99291 4.99974 6.93678 3.05322 8.88064C2.95903 8.9747 2.95903 9.03741 3.05322 9.13146C5.03114 11.0753 6.97766 13.0505 8.92419 14.9944C9.01837 15.0885 9.08116 15.0885 9.17535 14.9944C9.77186 14.3987 10.3684 13.803 10.9649 13.2073C11.0591 13.1133 11.0591 13.0505 10.9649 12.9565C10.3684 12.3608 9.77186 11.7651 9.17535 11.1694C9.08116 11.0753 9.04977 11.0126 9.17535 10.8872C10.4312 9.63311 11.7184 8.34765 12.9742 7.09354L13.0998 6.99948Z" fill="white"/>
</svg>
